<?xml version="1.0" encoding="UTF-8"?>
<svg width="100px" height="77px" viewBox="0 0 100 77" version="1.1" xmlns="http://www.w3.org/2000/svg" xmlns:xlink="http://www.w3.org/1999/xlink">
    <!-- Generator: Sketch 48.2 (47327) - http://www.bohemiancoding.com/sketch -->
    <title>blog-icon</title>
    <desc>Created with Sketch.</desc>
    <defs></defs>
    <g id="Page-1" stroke="none" stroke-width="1" fill="none" fill-rule="evenodd">
        <g id="blog-icon" fill="#FFFFFF" fill-rule="nonzero">
            <path d="M6.9,76.8 C3.3,76.8 0.4,73.9 0.4,70.3 L0.4,7.1 C0.4,3.5 3.3,0.6 6.9,0.6 L70.1,0.6 C73.7,0.6 76.6,3.5 76.6,7.1 L76.6,24 L85.8,14.7 C86.1,14.4 86.5,14.2 86.9,14.2 C87,14.2 87,14.2 87.1,14.2 C87.6,14.2 88.1,14.4 88.4,14.7 L98.8,25 C99.2,25.4 99.4,25.9 99.4,26.3 C99.4,26.8 99.2,27.3 98.8,27.6 L76.7,49.7 L76.7,70.3 C76.7,73.9 73.8,76.8 70.2,76.8 L6.9,76.8 Z M6.9,4.3 C5.3,4.3 4.1,5.5 4.1,7.1 L4.1,70.3 C4.1,71.9 5.3,73.1 6.9,73.1 L70.1,73.1 C71.7,73.1 72.9,71.9 72.9,70.3 L72.9,53.4 L65.9,60.4 C65.5,60.7 65.1,60.9 64.6,60.9 L54.4,60.9 C53.4,60.9 52.6,60.1 52.6,59.1 L52.6,48.9 C52.6,48.4 52.8,47.9 53.1,47.6 L73,27.7 L73,7.1 C73,5.5 71.8,4.3 70.2,4.3 L6.9,4.3 Z M63.8,57.3 L87.5,33.7 L79.9,26.1 L56.2,49.7 L56.2,57.3 L63.8,57.3 Z M90.2,31 L94.9,26.3 L87.3,18.7 L82.6,23.4 L90.2,31 Z M15.7,60.9 C14.7,60.9 14,60.2 13.9,59.2 C13.8,58.2 14.6,57.3 15.6,57.2 L15.7,57.2 L15.8,57.9 L15.9,57.2 L45.4,57.2 C45.9,57.2 46.4,57.4 46.7,57.8 C47,58.2 47.2,58.6 47.2,59.1 C47.2,60.1 46.4,60.9 45.4,60.9 L15.9,60.9 C15.9,60.9 15.8,60.9 15.7,60.9 Z M15.7,47.3 C14.7,47.3 14,46.6 13.9,45.6 C13.9,45.1 14,44.6 14.3,44.2 C14.6,43.8 15.1,43.6 15.6,43.5 L15.7,43.5 L15.8,44.2 L15.9,43.5 L45.6,43.5 C46.1,43.5 46.6,43.7 46.9,44.1 C47.2,44.5 47.4,44.9 47.4,45.4 C47.4,46.4 46.6,47.2 45.6,47.2 L15.9,47.2 C15.9,47.3 15.8,47.3 15.7,47.3 Z M15.7,33.7 C14.7,33.7 14,33 13.9,32 C13.8,31 14.6,30.1 15.6,30 L15.8,30 L61.2,30 C62.3,30 63.1,30.9 63.1,31.9 C63.1,32.9 62.3,33.7 61.3,33.7 L15.9,33.7 C15.9,33.7 15.8,33.7 15.7,33.7 Z M15.7,20.1 C14.7,20.1 14,19.4 13.9,18.4 C13.9,17.9 14,17.4 14.3,17 C14.6,16.6 15.1,16.4 15.6,16.3 L15.7,16.3 L15.8,17 L15.9,16.3 L61.3,16.3 C62.4,16.3 63.2,17.2 63.2,18.2 C63.2,19.2 62.4,20 61.4,20 L16,20 C15.9,20.1 15.8,20.1 15.7,20.1 Z" id="Shape"></path>
            <path d="M6.9,1.3 C3.7,1.3 1.1,3.9 1.1,7.1 L1.1,70.3 C1.1,73.5 3.7,76.1 6.9,76.1 L70.1,76.1 C73.3,76.1 75.9,73.5 75.9,70.3 L75.9,49.4 L98.3,27.1 C98.8,26.7 98.8,25.9 98.3,25.5 C98.3,25.5 98.3,25.5 98.3,25.5 L88,15.2 C87.7,15 87.4,14.8 87,14.9 C86.7,14.9 86.5,15 86.3,15.2 L75.9,25.7 L75.9,7.1 C75.9,3.9 73.3,1.3 70.1,1.3 L6.9,1.3 Z M6.9,3.5 L70.1,3.5 C72.1,3.5 73.6,5.1 73.6,7 L73.6,28 L53.6,48.1 C53.4,48.3 53.3,48.6 53.3,48.9 L53.3,59.1 C53.3,59.7 53.8,60.2 54.4,60.2 L64.6,60.2 C64.9,60.2 65.2,60.1 65.4,59.9 L73.7,51.7 L73.7,70.3 C73.7,72.3 72.1,73.8 70.2,73.8 L6.9,73.8 C4.9,73.8 3.4,72.2 3.4,70.3 L3.4,7.1 C3.4,5.1 4.9,3.5 6.9,3.5 Z M15.6,17.1 C15,17.2 14.5,17.7 14.6,18.3 C14.7,18.9 15.2,19.4 15.8,19.3 L61.2,19.3 C61.8,19.3 62.3,18.8 62.4,18.2 C62.4,17.6 61.9,17.1 61.3,17.1 C61.3,17.1 61.3,17.1 61.3,17.1 L15.9,17.1 C15.9,17.1 15.8,17.1 15.8,17.1 C15.7,17.1 15.7,17.1 15.6,17.1 Z M87.2,17.6 L95.8,26.2 L90.1,31.9 L81.5,23.3 L87.2,17.6 Z M79.9,25 L88.5,33.6 L64.1,58 L55.5,58 L55.5,49.4 L79.9,25 Z M15.6,30.8 C15,30.9 14.5,31.4 14.6,32 C14.7,32.6 15.2,33.1 15.8,33 L61.2,33 C61.8,33 62.3,32.5 62.4,31.9 C62.4,31.3 61.9,30.8 61.3,30.7 C61.3,30.7 61.3,30.7 61.3,30.7 L15.9,30.7 C15.9,30.7 15.8,30.7 15.8,30.7 C15.7,30.8 15.7,30.8 15.6,30.8 Z M15.6,44.4 C15,44.5 14.5,45 14.6,45.6 C14.7,46.2 15.2,46.7 15.8,46.6 L45.5,46.6 C46.1,46.6 46.6,46.1 46.6,45.5 C46.6,44.9 46.1,44.4 45.5,44.3 C45.5,44.3 45.5,44.3 45.5,44.3 L15.9,44.3 C15.9,44.3 15.8,44.3 15.8,44.3 C15.7,44.4 15.7,44.4 15.6,44.4 Z M15.6,58 C15,58.1 14.5,58.6 14.6,59.2 C14.7,59.8 15.2,60.3 15.8,60.2 L45.3,60.2 C45.9,60.2 46.4,59.7 46.4,59.1 C46.4,58.5 45.9,58 45.3,58 C45.3,58 45.3,58 45.3,58 L15.9,58 C15.9,58 15.8,58 15.8,58 C15.7,58 15.7,58 15.6,58 Z" id="Shape"></path>
        </g>
    </g>
</svg>