<?xml version="1.0" encoding="utf-8"?>
<!-- Generator: Adobe Illustrator 22.0.1, SVG Export Plug-In . SVG Version: 6.00 Build 0)  -->
<svg version="1.1" id="Layer_1" xmlns="http://www.w3.org/2000/svg" xmlns:xlink="http://www.w3.org/1999/xlink" x="0px" y="0px"
	 viewBox="19 15 103.7 82.7" style="enable-background:new 19 15 103.7 82.7;" xml:space="preserve">
<style type="text/css">
	.st0{fill:#ABDDEC;}
</style>
<path class="st0" d="M27.9,94.8c-3.6,0-6.5-2.9-6.5-6.5V25.1c0-3.6,2.9-6.5,6.5-6.5h63.2c3.6,0,6.5,2.9,6.5,6.5V42l9.2-9.3
	c0.3-0.3,0.7-0.5,1.1-0.5c0.1,0,0.1,0,0.2,0c0.5,0,1,0.2,1.3,0.5L119.8,43c0.4,0.4,0.6,0.9,0.6,1.3c0,0.5-0.2,1-0.6,1.3L97.7,67.7
	v20.6c0,3.6-2.9,6.5-6.5,6.5H27.9z M27.9,22.3c-1.6,0-2.8,1.2-2.8,2.8v63.2c0,1.6,1.2,2.8,2.8,2.8h63.2c1.6,0,2.8-1.2,2.8-2.8V71.4
	l-7,7c-0.4,0.3-0.8,0.5-1.3,0.5H75.4c-1,0-1.8-0.8-1.8-1.8V66.9c0-0.5,0.2-1,0.5-1.3L94,45.7V25.1c0-1.6-1.2-2.8-2.8-2.8H27.9z
	 M84.8,75.3l23.7-23.6l-7.6-7.6L77.2,67.7v7.6H84.8z M111.2,49l4.7-4.7l-7.6-7.6l-4.7,4.7L111.2,49z M36.7,78.9
	c-1,0-1.7-0.7-1.8-1.7c-0.1-1,0.7-1.9,1.7-2l0.1,0l0.1,0.7l0.1-0.7l29.5,0c0.5,0,1,0.2,1.3,0.6c0.3,0.4,0.5,0.8,0.5,1.3
	c0,1-0.8,1.8-1.8,1.8H36.9C36.9,78.9,36.8,78.9,36.7,78.9z M36.7,65.3c-1,0-1.7-0.7-1.8-1.7c0-0.5,0.1-1,0.4-1.4
	c0.3-0.4,0.8-0.6,1.3-0.7l0.1,0l0.1,0.7l0.1-0.7l29.7,0c0.5,0,1,0.2,1.3,0.6c0.3,0.4,0.5,0.8,0.5,1.3c0,1-0.8,1.8-1.8,1.8l-29.7,0
	C36.9,65.3,36.8,65.3,36.7,65.3z M36.7,51.7c-1,0-1.7-0.7-1.8-1.7c-0.1-1,0.7-1.9,1.7-2l0.2,0l45.4,0c1.1,0,1.9,0.9,1.9,1.9
	c0,1-0.8,1.8-1.8,1.8l-45.4,0C36.9,51.7,36.8,51.7,36.7,51.7z M36.7,38.1c-1,0-1.7-0.7-1.8-1.7c0-0.5,0.1-1,0.4-1.4
	c0.3-0.4,0.8-0.6,1.3-0.7l0.1,0l0.1,0.7l0.1-0.7l45.4,0c1.1,0,1.9,0.9,1.9,1.9c0,1-0.8,1.8-1.8,1.8l-45.4,0
	C36.9,38.1,36.8,38.1,36.7,38.1z"/>
<path class="st0" d="M27.9,19.3c-3.2,0-5.8,2.6-5.8,5.8v63.2c0,3.2,2.6,5.8,5.8,5.8h63.2c3.2,0,5.8-2.6,5.8-5.8V67.4l22.4-22.3
	c0.5-0.4,0.5-1.2,0-1.6c0,0,0,0,0,0L109,33.2c-0.3-0.2-0.6-0.4-1-0.3c-0.3,0-0.5,0.1-0.7,0.3L96.9,43.7V25.1c0-3.2-2.6-5.8-5.8-5.8
	H27.9z M27.9,21.5h63.2c2,0,3.5,1.6,3.5,3.5V46L74.6,66.1c-0.2,0.2-0.3,0.5-0.3,0.8v10.2c0,0.6,0.5,1.1,1.1,1.1h10.2
	c0.3,0,0.6-0.1,0.8-0.3l8.3-8.2v18.6c0,2-1.6,3.5-3.5,3.5H27.9c-2,0-3.5-1.6-3.5-3.5V25.1C24.4,23.1,25.9,21.5,27.9,21.5z
	 M36.6,35.1c-0.6,0.1-1.1,0.6-1,1.2c0.1,0.6,0.6,1.1,1.2,1h45.4c0.6,0,1.1-0.5,1.2-1.1c0-0.6-0.5-1.1-1.1-1.1c0,0,0,0,0,0H36.9
	c0,0-0.1,0-0.1,0C36.7,35.1,36.7,35.1,36.6,35.1z M108.2,35.6l8.6,8.6l-5.7,5.7l-8.6-8.6L108.2,35.6z M100.9,43l8.6,8.6L85.1,76
	h-8.6v-8.6L100.9,43z M36.6,48.8c-0.6,0.1-1.1,0.6-1,1.2c0.1,0.6,0.6,1.1,1.2,1h45.4c0.6,0,1.1-0.5,1.2-1.1c0-0.6-0.5-1.1-1.1-1.2
	c0,0,0,0,0,0H36.9c0,0-0.1,0-0.1,0C36.7,48.8,36.7,48.8,36.6,48.8z M36.6,62.4c-0.6,0.1-1.1,0.6-1,1.2c0.1,0.6,0.6,1.1,1.2,1h29.7
	c0.6,0,1.1-0.5,1.1-1.1c0-0.6-0.5-1.1-1.1-1.2c0,0,0,0,0,0H36.9c0,0-0.1,0-0.1,0C36.7,62.4,36.7,62.4,36.6,62.4z M36.6,76
	c-0.6,0.1-1.1,0.6-1,1.2c0.1,0.6,0.6,1.1,1.2,1h29.5c0.6,0,1.1-0.5,1.1-1.1c0-0.6-0.5-1.1-1.1-1.1c0,0,0,0,0,0H36.9c0,0-0.1,0-0.1,0
	C36.7,76,36.7,76,36.6,76z"/>
</svg>
