<?xml version="1.0" encoding="utf-8"?>
<!-- Generator: Adobe Illustrator 22.0.1, SVG Export Plug-In . SVG Version: 6.00 Build 0)  -->
<svg version="1.1" id="Layer_1" xmlns="http://www.w3.org/2000/svg" xmlns:xlink="http://www.w3.org/1999/xlink" x="0px" y="0px"
	 viewBox="19.8 26.7 102.1 60.2" style="enable-background:new 19.8 26.7 102.1 60.2;" xml:space="preserve">
<style type="text/css">
	.st0{fill:#ABDDEC;}
</style>
<g transform="translate(0,-952.36218)">
	<path class="st0" d="M56.2,981.6c-2.6,6.2-4.1,12.1-4.3,17.6c-5-2.3-11-3.7-17.8-4c-0.9,0-1.2,0.6-1.2,1.5
		c0.9,6.4,2.6,11.9,5.1,16.6c-5.2,0.7-10.5,2.5-16.1,5.4c-1.2,0.8-1.1,1.3-0.5,2.1c6.9,8.8,14.6,14.1,23,15.9
		c8.2,1.7,16.9,0.1,26.1-4.7c0.3-0.2,0.3-0.2,0.8,0c9.2,4.8,18,6.4,26.1,4.7c8.4-1.8,16-7.1,23-15.8c0.7-1,0.5-1.6-0.5-2.2
		c-5.6-2.9-11-4.8-16.1-5.4c2.5-4.6,4.2-10.1,5.1-16.4c0.1-1.2-0.4-1.7-1.4-1.6c-6.7,0.4-12.5,1.7-17.5,4
		c-0.2-5.5-1.7-11.4-4.3-17.7c-0.5-1-1.2-1.1-2.1-0.5c-5.4,3.9-9.6,8.1-12.6,12.7c-3-4.6-7.3-8.9-12.7-12.8
		C57.3,980.4,56.6,980.7,56.2,981.6L56.2,981.6z M57.8,983.7c5.2,3.8,9.1,8,11.7,12.4c-1.3,2.4-2.3,4.8-3,7.4
		c-0.7,2.4-1,4.9-1.1,7.5c-1.4-2.2-3.1-4.2-5-5.9c-1.9-1.8-4-3.2-6.3-4.5C54.2,995.3,55.4,989.7,57.8,983.7z M84,983.7
		c2.4,6,3.7,11.6,3.7,16.8c-2.3,1.3-4.5,2.8-6.4,4.5c-1.9,1.7-3.5,3.7-4.9,5.9c-0.1-2.6-0.5-5.1-1.1-7.5c-0.7-2.5-1.7-5-3-7.4
		C74.9,991.6,78.8,987.5,84,983.7z M35.4,997.7c6.4,0.5,11.8,1.8,16.4,4.1c0.1,2.7,0.5,5.4,1.2,7.9c0.6,2.1,1.4,4.1,2.4,6.1
		c-2-0.9-4.1-1.6-6.2-2.1c-2.1-0.5-4.3-0.7-6.5-0.7c-0.7,0-1.4,0-2.1,0.1C38.1,1008.9,36.4,1003.7,35.4,997.7L35.4,997.7z
		 M106.3,997.7c-1,6-2.7,11.2-5.1,15.4c-0.7,0-1.4-0.1-2.1-0.1c-2.2,0-4.4,0.2-6.5,0.7c-2.1,0.5-4.2,1.1-6.2,2.1c1-1.9,1.8-4,2.3-6
		c0.7-2.5,1.1-5.2,1.2-7.9C94.5,999.6,100,998.2,106.3,997.7L106.3,997.7z M70.9,998.5c0.9,1.8,1.6,3.6,2.1,5.5
		c1,3.5,1.2,7.2,0.9,11.1c-1.3,2.6-2.3,5.5-3,8.6c-0.8-3.1-1.8-5.9-3-8.5c-0.4-3.9-0.1-7.7,0.9-11.2
		C69.3,1002.2,70,1000.3,70.9,998.5L70.9,998.5z M54.2,1003.2c1.7,1,3.3,2.3,4.7,3.6c2.7,2.5,4.9,5.5,6.7,9.1
		c0.3,2.8,0.9,5.6,1.7,8.5c-2.5-2.6-5.2-4.7-7.9-6.4c-1.9-2.8-3.3-5.7-4.1-8.8C54.7,1007.2,54.4,1005.2,54.2,1003.2z M87.6,1003.2
		c-0.2,2-0.5,4.1-1,6c-0.9,3.1-2.2,6-4.1,8.8c-2.8,1.7-5.4,3.9-8,6.4c0.9-2.9,1.5-5.8,1.7-8.5c1.8-3.6,4-6.6,6.7-9.1
		C84.3,1005.4,85.9,1004.2,87.6,1003.2L87.6,1003.2z M42,1015.4c2.3,0,4.5,0.2,6.7,0.7c3.1,0.7,6.1,1.9,9,3.6
		c2.3,3.4,5.3,6.5,8.9,9.5c-8.4-1-15-3.9-20.1-8.5C44.8,1019.1,43.3,1017.3,42,1015.4L42,1015.4z M99.1,1015.4c0.2,0,0.5,0,0.7,0
		c-1.3,2-2.9,3.7-4.6,5.3c-5.1,4.7-11.7,7.5-20.1,8.5c3.6-2.9,6.6-6.1,8.9-9.5c2.9-1.7,5.9-2.9,9-3.6
		C95.1,1015.6,97.1,1015.4,99.1,1015.4L99.1,1015.4z M39.3,1015.5c1.6,2.6,3.5,4.9,5.6,6.8c5.5,5,12.6,8,21.3,9.1
		c-7.7,3.4-14.8,4.4-21.4,3c-7.5-1.6-14.5-6.2-20.9-14.1C29.3,1017.6,34.5,1016,39.3,1015.5z M102.5,1015.5c4.8,0.5,10,2,15.4,4.8
		c-6.5,7.9-13.5,12.5-20.9,14.1c-6.6,1.4-13.8,0.4-21.4-3c8.7-1.1,15.9-4,21.3-9.1C99,1020.4,100.8,1018.1,102.5,1015.5
		L102.5,1015.5z"/>
</g>
</svg>
