<?xml version="1.0" encoding="utf-8"?>
<!-- Generator: Adobe Illustrator 22.0.1, SVG Export Plug-In . SVG Version: 6.00 Build 0)  -->
<svg version="1.1" id="Isolation_Mode" xmlns="http://www.w3.org/2000/svg" xmlns:xlink="http://www.w3.org/1999/xlink" x="0px"
	 y="0px" viewBox="0 0 150 155" style="enable-background:new 0 0 150 155;" xml:space="preserve">
<style type="text/css">
	.st0{fill:#ABDDEC;}
</style>
<g>
	<g>
		<path class="st0" d="M104.9,150H44.4c-22,0-39.9-17.9-39.9-39.9V49.6c0-22,17.9-39.9,39.9-39.9h60.4c22,0,39.9,17.9,39.9,39.9
			v60.4C144.8,132.1,126.9,150,104.9,150z M44.4,21.7c-15.4,0-27.9,12.5-27.9,27.9v60.4c0,15.4,12.5,27.9,27.9,27.9h60.4
			c15.4,0,27.9-12.5,27.9-27.9V49.6c0-15.4-12.5-27.9-27.9-27.9H44.4z"/>
	</g>
	<g>
		<path class="st0" d="M74.6,115.8c-19.8,0-35.9-16.1-35.9-35.9c0-19.8,16.1-35.9,35.9-35.9c19.8,0,35.9,16.1,35.9,35.9
			C110.6,99.7,94.5,115.8,74.6,115.8z M74.6,55.9c-13.2,0-23.9,10.7-23.9,23.9c0,13.2,10.7,23.9,23.9,23.9
			c13.2,0,23.9-10.7,23.9-23.9C98.5,66.7,87.8,55.9,74.6,55.9z"/>
	</g>
	<g>
		<path class="st0" d="M120.8,41.9c0,4.8-3.9,8.6-8.6,8.6c-4.8,0-8.6-3.9-8.6-8.6c0-4.8,3.9-8.6,8.6-8.6
			C116.9,33.2,120.8,37.1,120.8,41.9z"/>
	</g>
</g>
</svg>
