<?xml version="1.0" encoding="UTF-8"?>
<svg width="86px" height="87px" viewBox="0 0 86 87" version="1.1" xmlns="http://www.w3.org/2000/svg" xmlns:xlink="http://www.w3.org/1999/xlink">
    <!-- Generator: Sketch 48.2 (47327) - http://www.bohemiancoding.com/sketch -->
    <title>instagram-link-icon</title>
    <desc>Created with Sketch.</desc>
    <defs></defs>
    <g id="Page-1" stroke="none" stroke-width="1" fill="none" fill-rule="evenodd">
        <g id="instagram-link-icon">
            <rect id="Rectangle" fill="#FFFFFF" x="16" y="15" width="55" height="54"></rect>
            <path d="M42.5,34.6 C38.6,34.6 35.4,37.8 35.4,41.7 C35.4,45.6 38.6,48.8 42.5,48.8 C46.4,48.8 49.6,45.6 49.6,41.7 C49.6,37.8 46.4,34.6 42.5,34.6 Z" id="Shape" fill="#8CA1CD" fill-rule="nonzero"></path>
            <path d="M57.1,21.7 L28,21.7 C25,21.7 22.6,24.1 22.6,27.1 L22.6,56.2 C22.6,59.2 25,61.6 28,61.6 L57.1,61.6 C60.1,61.6 62.5,59.2 62.5,56.2 L62.5,27.1 C62.5,24.1 60.1,21.7 57.1,21.7 Z M42.5,52.8 C36.4,52.8 31.4,47.8 31.4,41.7 C31.4,35.6 36.4,30.6 42.5,30.6 C48.6,30.6 53.6,35.6 53.6,41.7 C53.7,47.8 48.7,52.8 42.5,52.8 Z M55.5,31.6 C53.7,31.6 52.3,30.1 52.3,28.4 C52.3,26.6 53.8,25.2 55.5,25.2 C57.3,25.2 58.7,26.7 58.7,28.4 C58.7,30.2 57.3,31.6 55.5,31.6 Z" id="Shape" fill="#8CA1CD" fill-rule="nonzero"></path>
            <path d="M43,0.1 C19.3,0.1 0,19.4 0,43.1 C0,66.9 19.3,86.1 43,86.1 C66.8,86.1 86,66.8 86,43.1 C86,19.3 66.7,0.1 43,0.1 Z M66.5,56.2 C66.5,61.4 62.3,65.7 57,65.7 L28,65.7 C22.8,65.7 18.6,61.5 18.6,56.2 L18.6,27.1 C18.6,21.9 22.8,17.6 28,17.6 L57.1,17.6 C62.3,17.6 66.6,21.8 66.6,27.1 L66.6,56.2 L66.5,56.2 Z" id="Shape" fill="#8CA1CD" fill-rule="nonzero"></path>
        </g>
    </g>
</svg>