<?xml version="1.0" encoding="utf-8"?>
<!-- Generator: Adobe Illustrator 22.0.1, SVG Export Plug-In . SVG Version: 6.00 Build 0)  -->
<svg version="1.1" id="LOGOS" xmlns="http://www.w3.org/2000/svg" xmlns:xlink="http://www.w3.org/1999/xlink" x="0px" y="0px"
	 viewBox="0 0 864.6 205" style="enable-background:new 0 0 864.6 205;" xml:space="preserve">
<style type="text/css">
	.st0{fill:#A8BFE2;}
	.st1{fill:#9AD9E6;}
	.st2{fill:#FFFFFF;}
</style>
<g>
	<path class="st0" d="M213.6,143.8V95.5c0-0.8,0.1-1.4,0.4-1.7c0.3-0.3,0.9-0.5,1.7-0.5h6.8c0.1,0,0.2,0,0.3,0c0,0,0.1,0,0.2,0
		c0.7,0,1.2,0.2,1.4,0.5c0.2,0.3,0.3,0.9,0.3,1.7v72.4c0,0.9-0.2,1.5-0.5,1.8c-0.4,0.3-0.9,0.4-1.7,0.4h-6.1
		c-0.4-0.1-0.6-0.1-0.9-0.2c-0.2-0.1-0.4-0.2-0.7-0.4c-0.2-0.1-0.4-0.3-0.6-0.6c-0.2-0.3-0.4-0.6-0.7-1l-37.3-52.7v52.6
		c0,0.9-0.1,1.5-0.4,1.8c-0.3,0.4-0.9,0.5-1.8,0.5h-6.8c-0.9,0-1.5-0.1-1.8-0.4c-0.4-0.3-0.5-0.9-0.5-1.8V95.6c0-1,0.2-1.6,0.7-1.9
		c0.4-0.3,1-0.4,1.7-0.4h8.3c0.6,0,1,0,1.4,0.1c0.4,0.1,0.7,0.3,1,0.5c0.1,0.1,0.3,0.3,0.5,0.5c0.2,0.2,0.4,0.5,0.6,0.8L213.6,143.8
		z"/>
	<path class="st0" d="M250.7,99.3c0,0,0,0.1,0,0.2c0,1.9-0.7,3.4-2,4.7c-1.3,1.2-3,1.8-5.1,1.8c-2.3,0-4-0.6-5.4-1.8
		c-1.3-1.2-2-2.8-2-4.7c0-1.9,0.6-3.5,1.9-4.8c1.3-1.3,3.1-2,5.5-2c2.3,0,4,0.7,5.2,2c1.2,1.3,1.8,2.8,1.8,4.6
		C250.7,99.2,250.7,99.3,250.7,99.3z M250.5,167.7c0,0.9-0.1,1.5-0.4,1.8c-0.3,0.4-0.9,0.5-2,0.5h-9.4c-0.9,0-1.4-0.2-1.6-0.5
		c-0.2-0.3-0.3-0.9-0.3-1.8v-51.7c0-0.8,0.1-1.4,0.3-1.7c0.2-0.4,0.8-0.5,1.7-0.5h9.2c1,0,1.6,0.2,1.9,0.5c0.3,0.3,0.4,1,0.5,1.9
		V167.7z"/>
	<path class="st0" d="M306.6,167.8c0,0.9-0.2,1.6-0.5,1.8c-0.4,0.3-1,0.4-1.8,0.4h-8.7c-1.1,0-1.8-0.2-2-0.7
		c-0.3-0.4-0.4-1.1-0.4-1.8v-36.7c0-0.6,0-1.2,0-1.8c0-0.6-0.1-1.2-0.2-1.9c-0.2-1.9-0.9-3.6-2.2-5.1c-1.2-1.5-3.5-2.3-6.9-2.3
		c-2.7,0-4.6,0.5-5.8,1.6c-1.2,1.1-2,2.2-2.3,3.4c-0.3,0.8-0.4,1.6-0.5,2.3c0,0.7-0.1,1.3-0.1,1.8v38.5c0,1.1-0.2,1.8-0.5,2.1
		c-0.4,0.3-1.1,0.5-2.1,0.5h-8.6c-0.9,0-1.5-0.1-1.8-0.4c-0.3-0.3-0.5-0.9-0.5-1.8v-42.9c0-2.2,0.2-3.9,0.7-5.3
		c0.5-1.4,1.9-2.6,4.4-3.8c2.9-1.3,5.9-2.2,9-2.7c3.1-0.5,6.2-0.7,9.3-0.7c3.8,0,6.7,0.3,9,0.8c2.2,0.5,3.9,1.1,5.2,1.8
		c0.5,0.3,1,0.6,1.4,0.9c0.4,0.3,0.7,0.5,1,0.8c1.1,0.9,2,1.9,2.6,2.9c0.7,1,1.2,2,1.5,3.1c0.4,1.2,0.7,2.4,0.8,3.6
		c0.1,1.2,0.1,2.3,0.1,3.3V167.8z"/>
	<path class="st0" d="M357,158.5c-0.1,2.4-0.4,4.3-0.9,5.8c-0.5,1.4-1.8,2.8-3.9,3.9c-0.9,0.4-1.8,0.8-2.7,1.2
		c-0.9,0.4-1.9,0.6-2.8,0.8c-2.2,0.6-4.4,0.9-6.4,1c-2,0.1-3.4,0.2-4,0.2c-0.8,0-2.2-0.1-4.1-0.2c-1.9-0.1-4-0.5-6.1-1.1
		c-2.8-0.8-5.2-2.2-7.5-4.3c-2.2-2.1-3.4-5.3-3.4-9.6c0-1,0.2-2.3,0.5-4c0.3-1.6,1.1-3.3,2.4-5c0.2-0.4,0.5-0.7,0.8-1
		c0.3-0.3,0.7-0.7,1-1c1.6-1.6,3.5-2.9,5.6-3.9c2.2-1,4.8-2,7.8-2.9c1.5-0.4,3.2-0.9,5-1.4c1.8-0.5,3.7-1,5.8-1.5v-5.5
		c0-0.5,0-1,0-1.5c0-0.5,0-1-0.1-1.6c-0.2-1.7-0.7-3.2-1.5-4.6c-0.9-1.4-2.5-2.1-5-2.1c-1.7,0-3.1,0.4-4.1,1.1
		c-1,0.7-1.8,1.5-2.3,2.4c-0.3,0.5-0.5,1-0.7,1.4c-0.2,0.4-0.3,0.8-0.5,1.1c-0.5,1.4-1.1,2.6-1.8,3.7c-0.7,1.1-2.1,1.7-4.2,1.7
		c-1.6,0-3-0.5-4.1-1.6c-1.2-1-1.7-2.4-1.7-4.2c0-3.3,2-6.3,5.9-9.1c3.9-2.7,9.2-4.1,15.7-4.1c6.9,0,11.4,1.4,13.6,4.3
		c2.2,2.9,3.4,6,3.7,9.4c0.1,0.9,0.1,1.7,0.1,2.6c0,0.9,0,1.7,0,2.6v0.1V158.5z M344.2,141.6c-0.2,0.1-0.4,0.1-0.7,0.2
		c-0.2,0.1-0.4,0.1-0.6,0.2c-4,1.2-7.4,2.7-10.2,4.3c-2.8,1.7-4.2,4.4-4.2,8.2c0,2.7,0.8,4.9,2.3,6.7c1.6,1.8,3.8,2.7,6.7,2.7
		c2.2,0,3.8-0.4,4.7-1.3c0.9-0.9,1.5-1.8,1.7-2.9c0.1-0.5,0.2-1,0.3-1.6c0-0.5,0.1-1,0.1-1.4V141.6z"/>
	<path class="st0" d="M372,110.3c0.6-0.9,1.1-1.9,1.4-2.8c0.1-0.3,0.2-0.6,0.3-0.9c0-0.3,0.1-0.6,0.1-0.9c0-0.9-0.2-1.7-0.5-2.4
		c-0.4-0.7-0.8-1.2-1.2-1.7c-0.4-0.5-0.8-1-1.2-1.5c-0.4-0.5-0.7-0.9-1-1.4c-0.3-0.4-0.5-0.9-0.6-1.4c-0.1-0.5-0.2-1.1-0.2-1.7
		c0-1.7,0.6-3.2,1.8-4.3c1.2-1.2,2.8-1.7,4.6-1.7c2.1,0,4,0.8,5.6,2.4c1.6,1.6,2.4,4.1,2.4,7.5c0,3.1-0.7,6-2.1,8.7
		c-1.4,2.7-3,4.9-4.7,6.6c-1,1.1-2,1.9-3,2.5c-1,0.6-1.8,0.9-2.5,0.9c-0.7,0-1.3-0.2-1.7-0.7c-0.4-0.5-0.7-1-0.7-1.7
		c0-0.3,0-0.5,0.1-0.8c0.1-0.2,0.1-0.4,0.2-0.7c0.1-0.1,0.2-0.3,0.3-0.4c0.1-0.1,0.3-0.3,0.4-0.5C370.5,112.3,371.3,111.3,372,110.3
		z"/>
	<path class="st0" d="M413.3,137.7c0.7,0.3,1.4,0.6,2.1,1c0.8,0.4,1.5,0.8,2.2,1.2c2.1,1.3,4,3.1,5.8,5.3c1.8,2.2,2.7,5.3,2.7,9.1
		c0,0.9-0.1,2-0.3,3.1c-0.2,1.1-0.5,2.3-0.9,3.4c-1.1,2.7-3,5.1-5.8,7.2c-2.8,2.1-7,3.2-12.5,3.2c-5,0-9-0.8-11.9-2.4
		c-2.9-1.6-5-3.3-6.3-5.2c-0.7-1-1.1-2-1.5-2.9c-0.3-0.9-0.5-1.8-0.5-2.5c0-1.7,0.5-3.1,1.6-4.2c1-1.1,2.4-1.7,4-1.7
		c1.4,0,2.6,0.4,3.5,1.2c0.9,0.8,1.7,1.7,2.4,2.7c0,0.1,0,0.1,0.1,0.2c0.1,0,0.1,0.1,0.1,0.2c0.3,0.4,0.6,0.7,0.8,1.1
		c0.3,0.4,0.5,0.8,0.8,1.1c0.9,1.2,2,2.2,3,3c1.1,0.8,2.5,1.2,4.2,1.2c2,0,3.6-0.6,4.9-1.8c1.3-1.2,2-2.9,2-4.9
		c0-1.2-0.2-2.3-0.6-3.1c-0.4-0.8-0.9-1.6-1.3-2.2c-0.3-0.3-0.6-0.6-0.8-0.8c-0.3-0.3-0.5-0.5-0.7-0.6c-0.4-0.3-1.1-0.7-2.1-1.2
		c-1-0.5-2-1.1-3.2-1.6c-0.1-0.1-0.2-0.1-0.3-0.2c-0.1,0-0.2-0.1-0.3-0.2c-0.9-0.4-1.9-0.9-2.8-1.3c-0.9-0.4-1.6-0.8-2.2-1.1
		c-0.7-0.3-1.4-0.7-2.4-1.2c-0.9-0.5-1.9-1.2-2.9-2c-1.7-1.2-3.2-2.9-4.6-4.9c-1.4-2.1-2.1-4.7-2.1-7.8c0-0.2,0-0.5,0-0.7
		c0-0.3,0-0.5,0.1-0.7c0.3-3.6,1.9-6.9,4.8-10c2.9-3,7.6-4.6,14-4.6c4.7,0,8.4,0.8,11.1,2.3c2.7,1.6,4.6,3.2,5.6,5
		c0.4,0.7,0.8,1.5,1,2.2c0.2,0.7,0.3,1.4,0.3,2.1c0,1.5-0.5,2.8-1.5,3.8c-1,1-2.2,1.5-3.7,1.5c-1.5,0-2.6-0.4-3.4-1.1
		c-0.8-0.8-1.5-1.6-2.1-2.6c-0.1-0.1-0.1-0.3-0.2-0.4c-0.1-0.1-0.1-0.2-0.2-0.4c-0.1-0.3-0.3-0.6-0.5-0.9c-0.2-0.3-0.4-0.6-0.6-1
		c-0.6-0.9-1.4-1.7-2.3-2.4c-1-0.7-2.3-1.1-4-1.1c-1.8,0-3.2,0.5-4.2,1.5c-1,1-1.7,2.1-2.1,3.4c-0.1,0.2-0.1,0.5-0.2,0.8
		c0,0.3-0.1,0.6-0.1,0.9c0,2.2,0.7,4,2.1,5.2c1.4,1.2,2.9,2.2,4.6,3c0.3,0.1,0.6,0.3,1,0.4c0.4,0.1,0.7,0.3,1,0.4L413.3,137.7z"/>
	<path class="st0" d="M493.2,121.6l-14.5,46.2c-0.1,0.2-0.2,0.4-0.2,0.6c-0.1,0.2-0.1,0.3-0.2,0.5c-0.1,0.4-0.3,0.6-0.5,0.7
		c-0.2,0.1-0.5,0.2-0.9,0.3c-0.1,0-0.4,0-1,0.1c-0.6,0-1.2,0.1-1.9,0.1c-0.4,0-0.7,0-1,0c-0.3,0-0.6,0-0.9,0c-0.9,0-1.6-0.1-2-0.4
		c-0.4-0.3-0.7-0.8-1-1.7l-20.3-71.3c-0.1-0.4-0.2-0.8-0.3-1c0-0.2-0.1-0.4-0.1-0.5c0-0.1,0-0.1,0-0.2c0-0.7,0.2-1.1,0.6-1.3
		c0.4-0.2,0.9-0.3,1.4-0.3h10.2c0.9,0,1.5,0.1,1.8,0.3c0.4,0.2,0.6,0.7,0.9,1.7c0,0.1,0,0.1,0.1,0.2c0,0.1,0.1,0.1,0.1,0.2
		l12.5,49.5l15.2-49.7c0.1-0.2,0.1-0.4,0.2-0.5c0.1-0.1,0.1-0.3,0.1-0.4c0.2-0.4,0.4-0.7,0.7-0.9c0.2-0.2,0.5-0.3,1-0.3h4.1
		c0.2,0.1,0.4,0.1,0.5,0.2c0.1,0.1,0.2,0.2,0.4,0.4c0.1,0.1,0.2,0.4,0.3,0.7c0.1,0.3,0.2,0.7,0.4,1.1l15.4,49.4l12.6-49.7
		c0.2-0.9,0.5-1.4,0.9-1.7c0.4-0.3,0.9-0.4,1.6-0.4h7.4c0.6,0,1.1,0.1,1.5,0.2c0.4,0.1,0.7,0.5,0.7,1.2c0,0.2,0,0.5-0.1,0.7
		c0,0.3-0.1,0.7-0.3,1.2l-20,71.2c-0.1,0.1-0.1,0.3-0.2,0.4c0,0.1-0.1,0.2-0.1,0.4c-0.2,0.5-0.5,0.9-0.8,1.1
		c-0.3,0.2-0.8,0.3-1.4,0.3h-5.3c-0.4-0.1-0.8-0.2-1-0.3c-0.2-0.1-0.4-0.4-0.7-0.9c-0.1-0.1-0.1-0.2-0.2-0.4c0-0.2-0.1-0.3-0.2-0.5
		L493.2,121.6z"/>
	<path class="st0" d="M549.1,141.6c0.7,5.2,1.9,9.1,3.7,11.6c1.8,2.5,3.8,4.3,5.9,5.2c0.9,0.4,1.9,0.7,2.8,0.9
		c0.9,0.1,1.8,0.2,2.6,0.2c2.9,0,5.4-0.7,7.6-2.2c2.2-1.5,3.9-3.1,5.3-4.9c0.5-0.7,0.9-1.3,1.3-1.7c0.3-0.4,0.6-0.8,0.9-1
		c0.2-0.1,0.4-0.3,0.7-0.3c0.3-0.1,0.5-0.1,0.8-0.1c0.7,0,1.4,0.3,2,0.9c0.6,0.6,0.9,1.4,0.9,2.5c0,0.7-0.3,1.9-0.8,3.6
		c-0.5,1.8-1.4,3.6-2.6,5.6c-1.6,2.4-3.8,4.6-6.7,6.6c-2.9,2-6.7,3-11.4,3c-7.2,0-13-2.5-17.5-7.5c-4.5-5-6.8-12.4-6.8-22
		c0-9.9,2.2-17.1,6.7-21.7c4.5-4.5,9.4-7.1,14.9-7.7c0.4,0,0.9,0,1.4-0.1c0.5,0,0.9-0.1,1.4-0.1c5.1,0,9.2,1.2,12.1,3.5
		c2.9,2.3,5,4.8,6.4,7.6c0.9,1.8,1.6,3.6,2,5.3c0.4,1.7,0.5,3.1,0.5,4.1c0,1.3-0.2,2.2-0.7,2.8c-0.5,0.6-1,1-1.6,1.2
		c-0.3,0.1-0.6,0.1-0.8,0.2c-0.3,0.1-0.5,0.1-0.7,0.1L549.1,141.6z M569.4,131.5c-0.2-3.5-1.2-6.2-3.1-8.1c-1.8-1.9-4-2.9-6.3-2.9
		c-3.8,0-6.5,1.4-8.3,4.3c-1.8,2.9-2.8,6.2-3.1,10L569.4,131.5z"/>
	<path class="st0" d="M591.9,89.1c0-0.9,0.2-1.4,0.5-1.7c0.4-0.3,1-0.4,2-0.4h8.6c0.9,0,1.6,0.1,1.9,0.3c0.3,0.2,0.5,0.8,0.5,1.8
		v78.7c0,0.9-0.2,1.6-0.5,1.8c-0.4,0.3-1,0.4-1.8,0.4h-8.6c-0.9,0-1.6-0.1-2-0.3c-0.4-0.2-0.5-0.9-0.5-2V89.1z"/>
	<path class="st0" d="M616.8,89.1c0-0.9,0.2-1.4,0.5-1.7c0.4-0.3,1-0.4,2-0.4h8.6c0.9,0,1.6,0.1,1.9,0.3c0.3,0.2,0.5,0.8,0.5,1.8
		v78.7c0,0.9-0.2,1.6-0.5,1.8c-0.4,0.3-1,0.4-1.8,0.4h-8.6c-0.9,0-1.6-0.1-2-0.3c-0.4-0.2-0.5-0.9-0.5-2V89.1z"/>
	<path class="st0" d="M686.7,167.8c0,0.9-0.2,1.6-0.5,1.8c-0.4,0.3-1,0.4-1.8,0.4h-8.7c-1.1,0-1.8-0.2-2-0.7
		c-0.3-0.4-0.4-1.1-0.4-1.8v-36.7c0-0.6,0-1.2,0-1.8c0-0.6-0.1-1.2-0.2-1.9c-0.2-1.9-0.9-3.6-2.2-5.1c-1.2-1.5-3.5-2.3-6.9-2.3
		c-2.7,0-4.6,0.5-5.8,1.6c-1.2,1.1-2,2.2-2.3,3.4c-0.3,0.8-0.5,1.6-0.5,2.3c0,0.7-0.1,1.3-0.1,1.8v38.5c0,1.1-0.2,1.8-0.5,2.1
		c-0.4,0.3-1,0.5-2.1,0.5H644c-0.9,0-1.5-0.1-1.8-0.4c-0.3-0.3-0.5-0.9-0.5-1.8v-42.9c0-2.2,0.2-3.9,0.7-5.3
		c0.5-1.4,1.9-2.6,4.4-3.8c2.9-1.3,5.9-2.2,9-2.7c3.1-0.5,6.2-0.7,9.3-0.7c3.8,0,6.7,0.3,9,0.8c2.2,0.5,3.9,1.1,5.2,1.8
		c0.5,0.3,1,0.6,1.4,0.9c0.4,0.3,0.7,0.5,1,0.8c1.1,0.9,2,1.9,2.6,2.9c0.6,1,1.2,2,1.5,3.1c0.4,1.2,0.7,2.4,0.8,3.6
		c0.1,1.2,0.1,2.3,0.1,3.3V167.8z"/>
	<path class="st0" d="M707.4,141.6c0.6,5.2,1.9,9.1,3.7,11.6c1.8,2.5,3.8,4.3,5.9,5.2c0.9,0.4,1.9,0.7,2.8,0.9
		c0.9,0.1,1.8,0.2,2.6,0.2c2.9,0,5.4-0.7,7.6-2.2c2.2-1.5,3.9-3.1,5.3-4.9c0.5-0.7,0.9-1.3,1.3-1.7c0.3-0.4,0.6-0.8,0.9-1
		c0.2-0.1,0.5-0.3,0.7-0.3c0.3-0.1,0.5-0.1,0.8-0.1c0.7,0,1.4,0.3,2,0.9c0.6,0.6,0.9,1.4,0.9,2.5c0,0.7-0.3,1.9-0.8,3.6
		c-0.5,1.8-1.4,3.6-2.6,5.6c-1.6,2.4-3.8,4.6-6.7,6.6c-2.9,2-6.7,3-11.4,3c-7.2,0-13-2.5-17.5-7.5c-4.5-5-6.8-12.4-6.8-22
		c0-9.9,2.2-17.1,6.7-21.7c4.5-4.5,9.4-7.1,14.9-7.7c0.4,0,0.9,0,1.4-0.1c0.5,0,0.9-0.1,1.4-0.1c5.1,0,9.2,1.2,12.1,3.5
		c2.9,2.3,5,4.8,6.4,7.6c0.9,1.8,1.6,3.6,2,5.3c0.4,1.7,0.5,3.1,0.5,4.1c0,1.3-0.2,2.2-0.7,2.8c-0.5,0.6-1,1-1.6,1.2
		c-0.3,0.1-0.6,0.1-0.8,0.2c-0.3,0.1-0.5,0.1-0.7,0.1L707.4,141.6z M727.7,131.5c-0.2-3.5-1.2-6.2-3.1-8.1c-1.8-1.9-4-2.9-6.4-2.9
		c-3.8,0-6.5,1.4-8.3,4.3c-1.8,2.9-2.8,6.2-3.1,10L727.7,131.5z"/>
	<path class="st0" d="M775.3,137.7c0.7,0.3,1.4,0.6,2.1,1c0.8,0.4,1.5,0.8,2.2,1.2c2.1,1.3,4,3.1,5.8,5.3c1.8,2.2,2.7,5.3,2.7,9.1
		c0,0.9-0.1,2-0.3,3.1c-0.2,1.1-0.5,2.3-0.9,3.4c-1.1,2.7-3,5.1-5.8,7.2c-2.8,2.1-7,3.2-12.5,3.2c-5,0-9-0.8-11.9-2.4
		c-2.9-1.6-5-3.3-6.4-5.2c-0.6-1-1.1-2-1.5-2.9c-0.3-0.9-0.5-1.8-0.5-2.5c0-1.7,0.5-3.1,1.6-4.2c1-1.1,2.4-1.7,4-1.7
		c1.5,0,2.6,0.4,3.5,1.2c0.9,0.8,1.7,1.7,2.4,2.7c0,0.1,0,0.1,0.1,0.2c0.1,0,0.1,0.1,0.1,0.2c0.3,0.4,0.6,0.7,0.8,1.1
		c0.3,0.4,0.5,0.8,0.8,1.1c0.9,1.2,2,2.2,3,3c1.1,0.8,2.5,1.2,4.2,1.2c2,0,3.6-0.6,4.9-1.8c1.3-1.2,2-2.9,2-4.9
		c0-1.2-0.2-2.3-0.7-3.1c-0.4-0.8-0.9-1.6-1.3-2.2c-0.3-0.3-0.6-0.6-0.8-0.8c-0.3-0.3-0.5-0.5-0.7-0.6c-0.4-0.3-1.1-0.7-2.1-1.2
		c-1-0.5-2-1.1-3.2-1.6c-0.1-0.1-0.2-0.1-0.3-0.2c-0.1,0-0.2-0.1-0.3-0.2c-0.9-0.4-1.9-0.9-2.8-1.3c-0.9-0.4-1.6-0.8-2.2-1.1
		c-0.7-0.3-1.5-0.7-2.4-1.2c-0.9-0.5-1.9-1.2-2.9-2c-1.7-1.2-3.2-2.9-4.6-4.9c-1.4-2.1-2.1-4.7-2.1-7.8c0-0.2,0-0.5,0-0.7
		c0-0.3,0-0.5,0.1-0.7c0.3-3.6,1.9-6.9,4.8-10c2.9-3,7.6-4.6,14-4.6c4.7,0,8.4,0.8,11.1,2.3c2.7,1.6,4.6,3.2,5.6,5
		c0.4,0.7,0.8,1.5,1,2.2c0.2,0.7,0.3,1.4,0.3,2.1c0,1.5-0.5,2.8-1.5,3.8c-1,1-2.2,1.5-3.7,1.5c-1.5,0-2.6-0.4-3.4-1.1
		c-0.8-0.8-1.5-1.6-2.1-2.6c-0.1-0.1-0.1-0.3-0.2-0.4c-0.1-0.1-0.2-0.2-0.2-0.4c-0.1-0.3-0.3-0.6-0.5-0.9c-0.2-0.3-0.4-0.6-0.6-1
		c-0.6-0.9-1.4-1.7-2.3-2.4c-1-0.7-2.3-1.1-4-1.1c-1.8,0-3.2,0.5-4.2,1.5c-1,1-1.7,2.1-2.1,3.4c-0.1,0.2-0.1,0.5-0.2,0.8
		c0,0.3-0.1,0.6-0.1,0.9c0,2.2,0.7,4,2.1,5.2c1.4,1.2,2.9,2.2,4.6,3c0.3,0.1,0.6,0.3,1,0.4c0.4,0.1,0.7,0.3,1,0.4L775.3,137.7z"/>
	<path class="st0" d="M822.7,137.7c0.7,0.3,1.4,0.6,2.1,1c0.8,0.4,1.5,0.8,2.2,1.2c2.1,1.3,4,3.1,5.8,5.3c1.8,2.2,2.7,5.3,2.7,9.1
		c0,0.9-0.1,2-0.3,3.1c-0.2,1.1-0.5,2.3-0.9,3.4c-1.1,2.7-3,5.1-5.8,7.2c-2.8,2.1-7,3.2-12.5,3.2c-5,0-9-0.8-11.9-2.4
		c-2.9-1.6-5-3.3-6.4-5.2c-0.6-1-1.1-2-1.5-2.9c-0.3-0.9-0.5-1.8-0.5-2.5c0-1.7,0.5-3.1,1.6-4.2c1-1.1,2.4-1.7,4-1.7
		c1.4,0,2.6,0.4,3.5,1.2c0.9,0.8,1.7,1.7,2.4,2.7c0,0.1,0,0.1,0.1,0.2c0.1,0,0.1,0.1,0.1,0.2c0.3,0.4,0.6,0.7,0.8,1.1
		c0.3,0.4,0.5,0.8,0.8,1.1c0.9,1.2,2,2.2,3,3c1.1,0.8,2.5,1.2,4.2,1.2c2,0,3.6-0.6,4.9-1.8c1.3-1.2,2-2.9,2-4.9
		c0-1.2-0.2-2.3-0.6-3.1c-0.4-0.8-0.9-1.6-1.3-2.2c-0.3-0.3-0.6-0.6-0.8-0.8c-0.3-0.3-0.5-0.5-0.7-0.6c-0.4-0.3-1.1-0.7-2.1-1.2
		c-1-0.5-2-1.1-3.2-1.6c-0.1-0.1-0.2-0.1-0.3-0.2c-0.1,0-0.2-0.1-0.3-0.2c-0.9-0.4-1.9-0.9-2.8-1.3c-0.9-0.4-1.6-0.8-2.2-1.1
		c-0.7-0.3-1.5-0.7-2.4-1.2c-0.9-0.5-1.9-1.2-2.9-2c-1.7-1.2-3.2-2.9-4.6-4.9c-1.4-2.1-2.1-4.7-2.1-7.8c0-0.2,0-0.5,0-0.7
		c0-0.3,0-0.5,0.1-0.7c0.3-3.6,1.9-6.9,4.8-10c2.9-3,7.6-4.6,14-4.6c4.7,0,8.4,0.8,11.1,2.3c2.7,1.6,4.6,3.2,5.6,5
		c0.4,0.7,0.8,1.5,1,2.2c0.2,0.7,0.3,1.4,0.3,2.1c0,1.5-0.5,2.8-1.5,3.8c-1,1-2.2,1.5-3.7,1.5c-1.5,0-2.6-0.4-3.4-1.1
		c-0.8-0.8-1.5-1.6-2.1-2.6c-0.1-0.1-0.1-0.3-0.2-0.4c-0.1-0.1-0.1-0.2-0.2-0.4c-0.1-0.3-0.3-0.6-0.5-0.9c-0.2-0.3-0.4-0.6-0.6-1
		c-0.6-0.9-1.4-1.7-2.3-2.4c-1-0.7-2.3-1.1-4-1.1c-1.8,0-3.2,0.5-4.2,1.5c-1,1-1.7,2.1-2.1,3.4c-0.1,0.2-0.1,0.5-0.2,0.8
		c0,0.3-0.1,0.6-0.1,0.9c0,2.2,0.7,4,2.1,5.2c1.4,1.2,2.9,2.2,4.6,3c0.3,0.1,0.6,0.3,1,0.4c0.4,0.1,0.7,0.3,1,0.4L822.7,137.7z"/>
</g>
<g>
	<path class="st0" d="M111.1,143.3c0-15.5-12.6-28-28-28h-1.4v-1.4c0-15.5-12.5-28.1-28-28.1c-15.5,0-28.1,12.5-28.1,28v1.4l0,56.1
		l56.1,0H83c15.5,0,28-12.4,28.1-27.9C111.1,143.4,111.1,143.3,111.1,143.3z"/>
	<path class="st1" d="M74.9,57.6c0,11.9-9.6,21.5-21.5,21.5C41.6,79.1,32,69.5,32,57.6c0-11.9,9.6-21.5,21.5-21.5
		C65.3,36.1,74.9,45.8,74.9,57.6z"/>
	<path class="st2" d="M98.9,130.8c-4.4-4.4-11.6-4.4-16.1,0l-0.4,0.4l-0.4-0.4c-4.4-4.4-11.6-4.5-16.1,0c-4.4,4.4-4.5,11.6,0,16.1
		l0.4,0.4l16.1,16.1l16.1-16.1l0.4-0.4C103.3,142.5,103.3,135.3,98.9,130.8C98.9,130.8,98.9,130.8,98.9,130.8z"/>
</g>
</svg>
