<?xml version="1.0" encoding="utf-8"?>
<!-- Generator: Adobe Illustrator 22.0.1, SVG Export Plug-In . SVG Version: 6.00 Build 0)  -->
<svg version="1.1" id="LOGOS" xmlns="http://www.w3.org/2000/svg" xmlns:xlink="http://www.w3.org/1999/xlink" x="0px" y="0px"
	 viewBox="0 0 408.6 352.5" style="enable-background:new 0 0 408.6 352.5;" xml:space="preserve">
<style type="text/css">
	.st0{fill:#FFFFFF;}
</style>
<g>
	<g>
		<g>
			<g>
				<path class="st0" d="M38.5,326.3v11.6h-3V312h5.4c1.9,0,3.3,0.1,4.2,0.3c0.9,0.2,1.7,0.5,2.3,1c0.8,0.6,1.5,1.4,1.9,2.4
					c0.5,1,0.7,2.2,0.7,3.4c0,1.2-0.2,2.4-0.7,3.4c-0.5,1-1.1,1.8-1.9,2.4c-0.7,0.5-1.4,0.8-2.3,1c-0.9,0.2-2.3,0.3-4.2,0.3H40H38.5
					z M38.5,323.5H40c2.6,0,4.4-0.3,5.3-0.9c0.9-0.6,1.4-1.7,1.4-3.2c0-1.6-0.5-2.8-1.4-3.5c-0.9-0.7-2.7-1-5.3-1h-1.6V323.5z"/>
			</g>
		</g>
		<g>
			<g>
				<path class="st0" d="M53,337.9v-16.2h2.5v3.4c0.7-1.4,1.5-2.4,2.4-3c0.8-0.6,1.9-0.9,3.1-0.9c0.3,0,0.6,0,1,0.1
					c0.3,0,0.6,0.1,0.9,0.2l-0.9,2.5c-0.3-0.1-0.6-0.2-0.9-0.2c-0.3,0-0.6-0.1-0.8-0.1c-1.5,0-2.6,0.5-3.3,1.6
					c-0.7,1.1-1.1,2.6-1.1,4.8v7.9H53z"/>
			</g>
		</g>
		<g>
			<g>
				<path class="st0" d="M80,330.2H67.2v0.2c0,1.7,0.5,3.1,1.5,4.2c1,1.1,2.3,1.6,3.9,1.6c1.1,0,2.1-0.3,2.9-0.9
					c0.9-0.6,1.6-1.5,2.3-2.6l2.1,1.4c-0.8,1.5-1.8,2.6-3.1,3.3c-1.3,0.7-2.7,1.1-4.4,1.1c-2.5,0-4.4-0.8-6-2.4
					c-1.5-1.6-2.3-3.7-2.3-6.4c0-2.5,0.8-4.6,2.3-6.2c1.5-1.6,3.4-2.4,5.8-2.4c2.4,0,4.3,0.8,5.7,2.3c1.4,1.5,2.1,3.6,2.1,6.3V330.2
					z M77.1,328c-0.1-1.4-0.6-2.5-1.4-3.3c-0.9-0.8-2-1.2-3.5-1.2c-1.3,0-2.5,0.4-3.3,1.2c-0.9,0.8-1.4,1.9-1.6,3.2H77.1z"/>
			</g>
		</g>
		<g>
			<g>
				<path class="st0" d="M111.5,337.9l-2.5-3c-1.1,1.2-2.4,2-3.7,2.6c-1.3,0.6-2.7,0.9-4.2,0.9c-2.3,0-4.1-0.7-5.5-2
					c-1.4-1.4-2.1-3.1-2.1-5.3c0-1.5,0.5-3,1.5-4.3c1-1.3,2.5-2.5,4.5-3.7l-1.1-1.2c-0.6-0.7-1-1.4-1.3-2c-0.3-0.7-0.4-1.5-0.4-2.3
					c0-1.6,0.6-2.9,1.7-3.9c1.1-1,2.5-1.5,4.3-1.5c1.8,0,3.2,0.5,4.3,1.5c1.1,1,1.6,2.3,1.6,3.9c0,1.3-0.4,2.4-1.1,3.5
					c-0.7,1-1.9,2-3.6,3l5.6,6.8c0.5-0.5,1-1.1,1.5-1.8c0.5-0.7,1-1.4,1.6-2.3l1.9,2.1c-0.5,0.8-1,1.5-1.6,2.1
					c-0.5,0.7-1.1,1.3-1.7,1.9l4.1,5H111.5z M107.3,332.8l-6.2-7.6l-0.8,0.5c-1.4,1-2.4,1.8-2.9,2.6c-0.5,0.8-0.8,1.6-0.8,2.6
					c0,1.4,0.4,2.5,1.3,3.4c0.9,0.9,2,1.4,3.4,1.4c1,0,1.9-0.2,2.9-0.7C105.2,334.5,106.2,333.8,107.3,332.8z M102.2,322l1.1-0.7
					c0.8-0.5,1.4-1.1,1.8-1.7c0.4-0.6,0.6-1.3,0.6-2c0-0.9-0.3-1.6-0.8-2.1c-0.6-0.5-1.3-0.8-2.2-0.8c-0.9,0-1.6,0.3-2.2,0.8
					c-0.6,0.6-0.8,1.3-0.8,2.2c0,0.4,0.1,0.9,0.2,1.3c0.2,0.4,0.4,0.8,0.7,1.1L102.2,322z"/>
			</g>
		</g>
		<g>
			<g>
				<path class="st0" d="M133,326.3v11.6h-3V312h5.4c1.9,0,3.3,0.1,4.2,0.3c0.9,0.2,1.7,0.5,2.3,1c0.8,0.6,1.5,1.4,1.9,2.4
					c0.5,1,0.7,2.2,0.7,3.4c0,1.2-0.2,2.4-0.7,3.4c-0.5,1-1.1,1.8-1.9,2.4c-0.7,0.5-1.4,0.8-2.3,1c-0.9,0.2-2.3,0.3-4.2,0.3h-0.9
					H133z M133,323.5h1.6c2.6,0,4.4-0.3,5.3-0.9c0.9-0.6,1.4-1.7,1.4-3.2c0-1.6-0.5-2.8-1.4-3.5c-0.9-0.7-2.7-1-5.3-1H133V323.5z"/>
			</g>
		</g>
		<g>
			<g>
				<path class="st0" d="M144.8,329.8c0-1.2,0.2-2.3,0.7-3.4c0.4-1.1,1.1-2,1.9-2.8c0.8-0.8,1.8-1.4,2.8-1.9
					c1.1-0.4,2.2-0.6,3.4-0.6c1.2,0,2.3,0.2,3.3,0.7c1.1,0.4,2,1.1,2.9,1.9c0.8,0.8,1.5,1.7,1.9,2.8c0.4,1.1,0.7,2.2,0.7,3.3
					c0,1.2-0.2,2.3-0.7,3.3c-0.4,1-1.1,2-1.9,2.8c-0.9,0.8-1.8,1.5-2.9,1.9c-1.1,0.4-2.2,0.7-3.3,0.7c-1.2,0-2.3-0.2-3.4-0.7
					c-1.1-0.4-2-1.1-2.8-1.9c-0.8-0.8-1.5-1.8-1.9-2.8C145,332.1,144.8,331,144.8,329.8z M147.7,329.8c0,1.7,0.6,3.1,1.7,4.3
					c1.1,1.2,2.5,1.8,4.1,1.8c1.6,0,3-0.6,4.1-1.8c1.1-1.2,1.7-2.6,1.7-4.3c0-1.7-0.6-3.2-1.7-4.3c-1.1-1.2-2.5-1.8-4.1-1.8
					c-1.6,0-3,0.6-4.2,1.8C148.2,326.7,147.7,328.1,147.7,329.8z"/>
			</g>
		</g>
		<g>
			<g>
				<path class="st0" d="M164.9,335.2l2.4-1.6c0.5,0.9,1,1.5,1.7,1.9c0.7,0.4,1.5,0.7,2.4,0.7c0.9,0,1.6-0.2,2.2-0.7
					c0.6-0.5,0.8-1,0.8-1.8c0-0.6-0.2-1-0.6-1.4c-0.4-0.4-1-0.7-2-1c-0.1,0-0.2-0.1-0.5-0.1c-3.9-1.4-5.9-3-5.9-5.1
					c0-1.4,0.5-2.6,1.6-3.5c1.1-0.9,2.4-1.4,4.1-1.4c1.4,0,2.6,0.3,3.6,0.8c1,0.6,1.7,1.4,2.2,2.4l-2.2,1.4
					c-0.3-0.7-0.8-1.3-1.5-1.7c-0.6-0.4-1.4-0.6-2.2-0.6c-0.8,0-1.5,0.2-2,0.7c-0.5,0.5-0.8,1-0.8,1.7c0,1,1.1,1.8,3.2,2.5
					c0.4,0.1,0.7,0.2,1,0.3c1.8,0.6,3,1.2,3.7,1.9c0.7,0.7,1,1.7,1,2.9c0,1.5-0.5,2.8-1.6,3.7c-1.1,0.9-2.5,1.4-4.3,1.4
					c-1.5,0-2.8-0.3-3.8-0.8C166.4,337.1,165.5,336.3,164.9,335.2z"/>
			</g>
		</g>
		<g>
			<g>
				<path class="st0" d="M181.8,324h-3v-2.3h3v-6.5h2.8v6.5h3v2.3h-3v13.9h-2.8V324z"/>
			</g>
		</g>
		<g>
			<g>
				<path class="st0" d="M201.6,337.9V311l18.9,20.6V312h2.9v26.8l-18.9-20.4v19.4H201.6z"/>
			</g>
		</g>
		<g>
			<g>
				<path class="st0" d="M244.4,321.7v16.2h-2.7v-2.9c-0.6,1.2-1.5,2.1-2.5,2.7c-1,0.6-2.1,0.9-3.4,0.9c-2.3,0-4.2-0.8-5.6-2.4
					c-1.4-1.6-2.1-3.7-2.1-6.3c0-2.7,0.7-4.8,2.1-6.3c1.4-1.6,3.2-2.4,5.5-2.4c1.4,0,2.5,0.3,3.5,0.9c1,0.6,1.8,1.5,2.4,2.7v-3
					H244.4z M241.7,329.9c0-1.8-0.5-3.3-1.5-4.4c-1-1.1-2.3-1.7-3.9-1.7c-1.7,0-3,0.5-3.9,1.5c-0.9,1-1.4,2.4-1.4,4.3
					c0,2,0.5,3.5,1.4,4.5c0.9,1.1,2.3,1.6,4,1.6c1.6,0,2.9-0.5,3.9-1.5C241.2,333.2,241.7,331.8,241.7,329.9z"/>
			</g>
		</g>
		<g>
			<g>
				<path class="st0" d="M250.3,324h-3v-2.3h3v-6.5h2.8v6.5h3v2.3h-3v13.9h-2.8V324z"/>
			</g>
		</g>
		<g>
			<g>
				<path class="st0" d="M274.3,321.7v16.2h-2.7v-2.9c-0.7,1.2-1.5,2.1-2.5,2.7c-1,0.6-2.1,0.9-3.4,0.9c-2.3,0-4.2-0.8-5.6-2.4
					c-1.4-1.6-2.1-3.7-2.1-6.3c0-2.7,0.7-4.8,2.1-6.3c1.4-1.6,3.2-2.4,5.5-2.4c1.4,0,2.5,0.3,3.5,0.9c1,0.6,1.8,1.5,2.4,2.7v-3
					H274.3z M271.6,329.9c0-1.8-0.5-3.3-1.5-4.4c-1-1.1-2.3-1.7-3.9-1.7c-1.7,0-3,0.5-3.9,1.5c-0.9,1-1.4,2.4-1.4,4.3
					c0,2,0.5,3.5,1.4,4.5c0.9,1.1,2.3,1.6,4,1.6c1.6,0,2.9-0.5,3.9-1.5C271.1,333.2,271.6,331.8,271.6,329.9z"/>
			</g>
		</g>
		<g>
			<g>
				<path class="st0" d="M279.9,337.9v-27.4h2.8v27.4H279.9z"/>
			</g>
		</g>
		<g>
			<g>
				<path class="st0" d="M320.5,318.2c-1.2-1.3-2.5-2.3-4-3c-1.4-0.6-2.9-1-4.6-1c-1.4,0-2.7,0.3-4,0.8c-1.3,0.6-2.4,1.3-3.4,2.3
					c-1,1-1.7,2.2-2.2,3.4c-0.5,1.3-0.7,2.7-0.7,4.2c0,1.2,0.2,2.3,0.4,3.3c0.3,1,0.7,1.9,1.3,2.8c1,1.5,2.3,2.6,3.8,3.4
					c1.5,0.8,3.1,1.2,4.9,1.2c1.6,0,3.2-0.3,4.6-1c1.4-0.7,2.7-1.7,3.9-3v4.1c-1.3,0.9-2.7,1.6-4.1,2.1c-1.5,0.5-3,0.7-4.6,0.7
					c-1.4,0-2.7-0.2-4-0.6c-1.3-0.4-2.5-1-3.6-1.8c-1.9-1.3-3.3-2.9-4.3-4.8c-1-1.9-1.5-4-1.5-6.3c0-2,0.3-3.8,1-5.4
					c0.7-1.6,1.7-3.1,3-4.4c1.3-1.3,2.8-2.2,4.4-2.8c1.6-0.6,3.3-1,5.2-1c1.5,0,2.9,0.2,4.3,0.7c1.4,0.5,2.8,1.2,4.1,2.1V318.2z"/>
			</g>
		</g>
		<g>
			<g>
				<path class="st0" d="M340.5,321.7v16.2h-2.7v-2.9c-0.6,1.2-1.5,2.1-2.5,2.7c-1,0.6-2.1,0.9-3.4,0.9c-2.3,0-4.2-0.8-5.6-2.4
					c-1.4-1.6-2.1-3.7-2.1-6.3c0-2.7,0.7-4.8,2.1-6.3c1.4-1.6,3.2-2.4,5.5-2.4c1.4,0,2.5,0.3,3.5,0.9c1,0.6,1.8,1.5,2.4,2.7v-3
					H340.5z M337.8,329.9c0-1.8-0.5-3.3-1.5-4.4c-1-1.1-2.3-1.7-3.9-1.7c-1.7,0-3,0.5-3.9,1.5c-0.9,1-1.4,2.4-1.4,4.3
					c0,2,0.5,3.5,1.4,4.5c0.9,1.1,2.3,1.6,4,1.6c1.6,0,2.9-0.5,3.9-1.5C337.3,333.2,337.8,331.8,337.8,329.9z"/>
			</g>
		</g>
		<g>
			<g>
				<path class="st0" d="M346,337.9v-16.2h2.5v3.4c0.7-1.4,1.5-2.4,2.4-3c0.8-0.6,1.8-0.9,3.1-0.9c0.3,0,0.6,0,1,0.1
					c0.3,0,0.6,0.1,0.9,0.2l-0.9,2.5c-0.3-0.1-0.6-0.2-0.9-0.2c-0.3,0-0.6-0.1-0.8-0.1c-1.5,0-2.5,0.5-3.3,1.6
					c-0.7,1.1-1.1,2.6-1.1,4.8v7.9H346z"/>
			</g>
		</g>
		<g>
			<g>
				<path class="st0" d="M373.1,330.2h-12.8v0.2c0,1.7,0.5,3.1,1.5,4.2c1,1.1,2.3,1.6,3.9,1.6c1.1,0,2.1-0.3,2.9-0.9
					c0.9-0.6,1.6-1.5,2.3-2.6l2.1,1.4c-0.8,1.5-1.8,2.6-3.1,3.3c-1.3,0.7-2.7,1.1-4.4,1.1c-2.5,0-4.4-0.8-6-2.4
					c-1.5-1.6-2.3-3.7-2.3-6.4c0-2.5,0.8-4.6,2.3-6.2c1.5-1.6,3.4-2.4,5.8-2.4c2.4,0,4.3,0.8,5.7,2.3c1.4,1.5,2.1,3.6,2.1,6.3V330.2
					z M370.1,328c-0.1-1.4-0.6-2.5-1.4-3.3c-0.9-0.8-2-1.2-3.5-1.2c-1.3,0-2.5,0.4-3.4,1.2c-0.9,0.8-1.4,1.9-1.6,3.2H370.1z"/>
			</g>
		</g>
	</g>
</g>
<g>
	<g>
		<path class="st0" d="M45.6,277.8V251c0-0.4,0.1-0.8,0.2-0.9c0.2-0.2,0.5-0.3,1-0.3h3.8c0.1,0,0.1,0,0.2,0c0,0,0.1,0,0.1,0
			c0.4,0,0.7,0.1,0.8,0.3c0.1,0.2,0.2,0.5,0.2,0.9v40.1c0,0.5-0.1,0.9-0.3,1c-0.2,0.1-0.5,0.2-1,0.2h-3.4c-0.2,0-0.4-0.1-0.5-0.1
			c-0.1,0-0.2-0.1-0.4-0.2c-0.1-0.1-0.2-0.2-0.3-0.3c-0.1-0.1-0.2-0.3-0.4-0.6l-20.7-29.2V291c0,0.5-0.1,0.8-0.2,1
			c-0.1,0.2-0.5,0.3-1,0.3h-3.8c-0.5,0-0.8-0.1-1-0.2c-0.2-0.1-0.3-0.5-0.3-1v-40c0-0.6,0.1-0.9,0.4-1.1c0.2-0.1,0.6-0.2,1-0.2h4.6
			c0.3,0,0.6,0,0.8,0.1c0.2,0,0.4,0.1,0.5,0.3c0.1,0.1,0.2,0.2,0.3,0.3c0.1,0.1,0.2,0.3,0.3,0.4L45.6,277.8z"/>
		<path class="st0" d="M66.2,253.1C66.2,253.2,66.2,253.2,66.2,253.1c0,1.1-0.4,2-1.1,2.7c-0.7,0.7-1.7,1-2.8,1c-1.2,0-2.2-0.3-3-1
			c-0.7-0.7-1.1-1.5-1.1-2.6c0-1,0.4-1.9,1.1-2.7c0.7-0.7,1.7-1.1,3-1.1c1.3,0,2.2,0.4,2.9,1.1C65.8,251.2,66.1,252.1,66.2,253.1
			C66.2,253.1,66.2,253.1,66.2,253.1z M66,291c0,0.5-0.1,0.8-0.2,1c-0.1,0.2-0.5,0.3-1.1,0.3h-5.2c-0.5,0-0.8-0.1-0.9-0.3
			c-0.1-0.2-0.1-0.5-0.1-1v-28.6c0-0.4,0.1-0.8,0.2-1c0.1-0.2,0.4-0.3,1-0.3h5.1c0.6,0,0.9,0.1,1.1,0.3c0.1,0.2,0.2,0.5,0.3,1.1V291
			z"/>
		<path class="st0" d="M97.1,291c0,0.5-0.1,0.9-0.3,1c-0.2,0.2-0.5,0.2-1,0.2H91c-0.6,0-1-0.1-1.1-0.4c-0.1-0.2-0.2-0.6-0.2-1v-20.3
			c0-0.3,0-0.6,0-1c0-0.3,0-0.7-0.1-1.1c-0.1-1-0.5-2-1.2-2.8c-0.7-0.8-2-1.3-3.8-1.3c-1.5,0-2.6,0.3-3.2,0.9
			c-0.7,0.6-1.1,1.2-1.3,1.9c-0.2,0.4-0.2,0.9-0.3,1.3c0,0.4,0,0.7,0,1v21.3c0,0.6-0.1,1-0.3,1.2c-0.2,0.2-0.6,0.3-1.1,0.3h-4.7
			c-0.5,0-0.8-0.1-1-0.2c-0.2-0.2-0.3-0.5-0.3-1v-23.7c0-1.2,0.1-2.2,0.4-2.9c0.3-0.8,1.1-1.5,2.4-2.1c1.6-0.7,3.3-1.2,5-1.5
			c1.7-0.3,3.4-0.4,5.2-0.4c2.1,0,3.7,0.2,5,0.5c1.2,0.3,2.2,0.6,2.9,1c0.3,0.2,0.5,0.3,0.8,0.5c0.2,0.2,0.4,0.3,0.6,0.4
			c0.6,0.5,1.1,1.1,1.4,1.6c0.4,0.5,0.6,1.1,0.8,1.7c0.2,0.7,0.4,1.4,0.4,2c0,0.7,0.1,1.3,0.1,1.8V291z"/>
		<path class="st0" d="M125,285.9c0,1.3-0.2,2.4-0.5,3.2c-0.3,0.8-1,1.5-2.2,2.2c-0.5,0.2-1,0.5-1.5,0.7c-0.5,0.2-1,0.3-1.6,0.4
			c-1.2,0.3-2.4,0.5-3.5,0.6c-1.1,0.1-1.9,0.1-2.2,0.1c-0.4,0-1.2,0-2.3-0.1c-1.1-0.1-2.2-0.3-3.4-0.6c-1.5-0.4-2.9-1.2-4.1-2.4
			c-1.2-1.2-1.9-2.9-1.9-5.3c0-0.6,0.1-1.3,0.3-2.2c0.2-0.9,0.6-1.8,1.4-2.8c0.1-0.2,0.3-0.4,0.5-0.6c0.2-0.2,0.4-0.4,0.6-0.6
			c0.9-0.9,1.9-1.6,3.1-2.2c1.2-0.6,2.6-1.1,4.3-1.6c0.8-0.2,1.8-0.5,2.8-0.8c1-0.3,2.1-0.6,3.2-0.8V270c0-0.3,0-0.6,0-0.8
			c0-0.3,0-0.6-0.1-0.9c-0.1-0.9-0.4-1.8-0.8-2.6c-0.5-0.8-1.4-1.2-2.8-1.2c-1,0-1.7,0.2-2.3,0.6c-0.5,0.4-1,0.8-1.3,1.3
			c-0.2,0.3-0.3,0.5-0.4,0.8c-0.1,0.2-0.2,0.4-0.3,0.6c-0.3,0.8-0.6,1.5-1,2.1c-0.4,0.6-1.2,0.9-2.3,0.9c-0.9,0-1.6-0.3-2.3-0.9
			c-0.6-0.6-1-1.4-1-2.3c0-1.8,1.1-3.5,3.2-5c2.2-1.5,5.1-2.3,8.7-2.3c3.8,0,6.3,0.8,7.5,2.4c1.2,1.6,1.9,3.3,2,5.2
			c0,0.5,0.1,1,0.1,1.4c0,0.5,0,1,0,1.4v0.1V285.9z M117.9,276.5c-0.1,0-0.2,0.1-0.4,0.1c-0.1,0-0.2,0.1-0.4,0.1
			c-2.2,0.7-4.1,1.5-5.6,2.4c-1.6,0.9-2.3,2.4-2.3,4.6c0,1.5,0.4,2.7,1.3,3.7c0.9,1,2.1,1.5,3.7,1.5c1.2,0,2.1-0.2,2.6-0.7
			c0.5-0.5,0.8-1,0.9-1.6c0.1-0.3,0.1-0.6,0.1-0.9c0-0.3,0-0.6,0-0.8V276.5z"/>
		<path class="st0" d="M133.3,259.2c0.4-0.5,0.6-1,0.8-1.6c0.1-0.2,0.1-0.3,0.1-0.5c0-0.2,0-0.4,0-0.5c0-0.5-0.1-1-0.3-1.3
			c-0.2-0.4-0.4-0.7-0.7-1c-0.2-0.3-0.5-0.5-0.7-0.8c-0.2-0.3-0.4-0.5-0.5-0.8c-0.2-0.2-0.3-0.5-0.4-0.8c-0.1-0.3-0.1-0.6-0.1-1
			c0-1,0.3-1.8,1-2.4c0.7-0.6,1.5-1,2.5-1c1.2,0,2.2,0.4,3.1,1.3c0.9,0.9,1.4,2.3,1.4,4.1c0,1.7-0.4,3.3-1.2,4.8
			c-0.8,1.5-1.7,2.7-2.6,3.6c-0.6,0.6-1.1,1.1-1.7,1.4c-0.6,0.3-1,0.5-1.4,0.5c-0.4,0-0.7-0.1-1-0.4c-0.2-0.3-0.4-0.6-0.4-0.9
			c0-0.2,0-0.3,0.1-0.4c0-0.1,0.1-0.2,0.1-0.4c0-0.1,0.1-0.2,0.2-0.2c0.1-0.1,0.2-0.2,0.2-0.3C132.5,260.3,132.9,259.8,133.3,259.2z
			"/>
		<path class="st0" d="M156.2,274.4c0.4,0.2,0.8,0.4,1.2,0.6c0.4,0.2,0.8,0.5,1.2,0.7c1.2,0.7,2.2,1.7,3.2,2.9c1,1.2,1.5,2.9,1.5,5
			c0,0.5-0.1,1.1-0.2,1.7c-0.1,0.6-0.3,1.3-0.5,1.9c-0.6,1.5-1.7,2.8-3.2,4c-1.5,1.2-3.9,1.8-6.9,1.8c-2.8,0-5-0.4-6.6-1.3
			c-1.6-0.9-2.8-1.8-3.5-2.9c-0.4-0.6-0.6-1.1-0.8-1.6c-0.2-0.5-0.3-1-0.3-1.4c0-0.9,0.3-1.7,0.9-2.3c0.6-0.6,1.3-0.9,2.2-0.9
			c0.8,0,1.4,0.2,1.9,0.7c0.5,0.5,0.9,1,1.3,1.5c0,0,0,0.1,0.1,0.1c0,0,0.1,0.1,0.1,0.1c0.2,0.2,0.3,0.4,0.4,0.6
			c0.1,0.2,0.3,0.4,0.5,0.6c0.5,0.7,1.1,1.2,1.7,1.7c0.6,0.4,1.4,0.7,2.3,0.7c1.1,0,2-0.3,2.7-1c0.7-0.7,1.1-1.6,1.1-2.7
			c0-0.7-0.1-1.3-0.4-1.7c-0.2-0.5-0.5-0.9-0.7-1.2c-0.2-0.2-0.3-0.3-0.4-0.5c-0.1-0.1-0.3-0.3-0.4-0.3c-0.2-0.2-0.6-0.4-1.2-0.7
			c-0.5-0.3-1.1-0.6-1.8-0.9c0,0-0.1-0.1-0.2-0.1c-0.1,0-0.1,0-0.2-0.1c-0.5-0.2-1-0.5-1.5-0.7c-0.5-0.2-0.9-0.4-1.2-0.6
			c-0.4-0.2-0.8-0.4-1.3-0.7c-0.5-0.3-1.1-0.6-1.6-1.1c-0.9-0.7-1.8-1.6-2.5-2.7c-0.8-1.1-1.1-2.6-1.1-4.3c0-0.1,0-0.2,0-0.4
			c0-0.1,0-0.3,0.1-0.4c0.2-2,1-3.8,2.6-5.5c1.6-1.7,4.2-2.5,7.8-2.5c2.6,0,4.7,0.4,6.1,1.3c1.5,0.9,2.5,1.8,3.1,2.8
			c0.2,0.4,0.4,0.8,0.5,1.2c0.1,0.4,0.2,0.8,0.2,1.1c0,0.8-0.3,1.5-0.8,2.1c-0.5,0.6-1.2,0.8-2.1,0.8c-0.8,0-1.4-0.2-1.9-0.6
			c-0.5-0.4-0.9-0.9-1.2-1.4c0-0.1-0.1-0.2-0.1-0.2c0-0.1-0.1-0.1-0.1-0.2c-0.1-0.2-0.2-0.3-0.3-0.5c-0.1-0.2-0.2-0.3-0.3-0.5
			c-0.3-0.5-0.8-0.9-1.3-1.3c-0.5-0.4-1.3-0.6-2.2-0.6c-1,0-1.8,0.3-2.3,0.8c-0.6,0.6-0.9,1.2-1.1,1.9c0,0.1-0.1,0.3-0.1,0.4
			c0,0.2,0,0.3,0,0.5c0,1.2,0.4,2.2,1.1,2.9c0.8,0.7,1.6,1.2,2.5,1.7c0.2,0.1,0.3,0.2,0.5,0.2c0.2,0.1,0.4,0.2,0.5,0.2L156.2,274.4z
			"/>
		<path class="st0" d="M200.4,265.5l-8.1,25.6c0,0.1-0.1,0.2-0.1,0.3c0,0.1-0.1,0.2-0.1,0.3c-0.1,0.2-0.2,0.3-0.3,0.4
			c-0.1,0.1-0.3,0.1-0.5,0.1c0,0-0.2,0-0.6,0c-0.3,0-0.7,0-1.1,0c-0.2,0-0.4,0-0.6,0c-0.2,0-0.4,0-0.5,0c-0.5,0-0.9-0.1-1.1-0.2
			c-0.2-0.1-0.4-0.5-0.6-0.9l-11.2-39.5c-0.1-0.2-0.1-0.4-0.2-0.5c0-0.1,0-0.2,0-0.3c0,0,0-0.1,0-0.1c0-0.4,0.1-0.6,0.4-0.7
			c0.2-0.1,0.5-0.2,0.8-0.2h5.6c0.5,0,0.8,0.1,1,0.2c0.2,0.1,0.4,0.4,0.5,0.9c0,0,0,0.1,0,0.1c0,0,0,0.1,0,0.1l6.9,27.4l8.4-27.5
			c0-0.1,0.1-0.2,0.1-0.3c0-0.1,0.1-0.2,0.1-0.2c0.1-0.2,0.2-0.4,0.4-0.5c0.1-0.1,0.3-0.2,0.5-0.2h2.3c0.1,0,0.2,0.1,0.3,0.1
			c0.1,0,0.1,0.1,0.2,0.2c0,0.1,0.1,0.2,0.1,0.4c0.1,0.2,0.1,0.4,0.2,0.6l8.5,27.3l7-27.5c0.1-0.5,0.3-0.8,0.5-1
			c0.2-0.2,0.5-0.2,0.9-0.2h4.1c0.3,0,0.6,0,0.8,0.1c0.2,0.1,0.4,0.3,0.4,0.7c0,0.1,0,0.3,0,0.4c0,0.1-0.1,0.4-0.2,0.7l-11.1,39.4
			c0,0.1-0.1,0.2-0.1,0.2c0,0.1,0,0.1,0,0.2c-0.1,0.3-0.3,0.5-0.4,0.6c-0.2,0.1-0.4,0.2-0.8,0.2h-2.9c-0.2,0-0.4-0.1-0.5-0.2
			c-0.1-0.1-0.2-0.2-0.4-0.5c0,0-0.1-0.1-0.1-0.2c0-0.1-0.1-0.2-0.1-0.3L200.4,265.5z"/>
		<path class="st0" d="M231.4,276.5c0.4,2.9,1.1,5,2.1,6.4c1,1.4,2.1,2.4,3.3,2.9c0.5,0.2,1,0.4,1.5,0.5c0.5,0.1,1,0.1,1.4,0.1
			c1.6,0,3-0.4,4.2-1.2c1.2-0.8,2.2-1.7,2.9-2.7c0.3-0.4,0.5-0.7,0.7-1c0.2-0.2,0.3-0.4,0.5-0.5c0.1-0.1,0.2-0.1,0.4-0.2
			c0.1,0,0.3-0.1,0.5-0.1c0.4,0,0.8,0.2,1.1,0.5c0.3,0.3,0.5,0.8,0.5,1.4c0,0.4-0.1,1-0.4,2c-0.3,1-0.8,2-1.4,3.1
			c-0.9,1.3-2.1,2.5-3.7,3.6c-1.6,1.1-3.7,1.7-6.3,1.7c-4,0-7.2-1.4-9.7-4.2c-2.5-2.8-3.8-6.8-3.8-12.2c0-5.5,1.2-9.5,3.7-12
			c2.5-2.5,5.2-3.9,8.2-4.2c0.2,0,0.5,0,0.8,0c0.3,0,0.5,0,0.8,0c2.8,0,5.1,0.6,6.7,1.9c1.6,1.3,2.8,2.7,3.5,4.2
			c0.5,1,0.9,2,1.1,2.9c0.2,0.9,0.3,1.7,0.3,2.3c0,0.7-0.1,1.2-0.4,1.6c-0.3,0.3-0.6,0.5-0.9,0.7c-0.2,0-0.3,0.1-0.5,0.1
			c-0.1,0-0.3,0.1-0.4,0.1L231.4,276.5z M242.6,271c-0.1-1.9-0.7-3.4-1.7-4.5c-1-1.1-2.2-1.6-3.5-1.6c-2.1,0-3.6,0.8-4.6,2.4
			c-1,1.6-1.6,3.4-1.7,5.5L242.6,271z"/>
		<path class="st0" d="M255.1,247.5c0-0.5,0.1-0.8,0.3-0.9c0.2-0.1,0.6-0.2,1.1-0.2h4.7c0.5,0,0.9,0.1,1.1,0.2
			c0.2,0.1,0.3,0.4,0.3,1V291c0,0.5-0.1,0.9-0.3,1c-0.2,0.2-0.5,0.2-1,0.2h-4.7c-0.5,0-0.9-0.1-1.1-0.2c-0.2-0.1-0.3-0.5-0.3-1.1
			V247.5z"/>
		<path class="st0" d="M268.8,247.5c0-0.5,0.1-0.8,0.3-0.9c0.2-0.1,0.6-0.2,1.1-0.2h4.8c0.5,0,0.9,0.1,1.1,0.2
			c0.2,0.1,0.3,0.4,0.3,1V291c0,0.5-0.1,0.9-0.3,1c-0.2,0.2-0.5,0.2-1,0.2h-4.8c-0.5,0-0.9-0.1-1.1-0.2c-0.2-0.1-0.3-0.5-0.3-1.1
			V247.5z"/>
		<path class="st0" d="M307.5,291c0,0.5-0.1,0.9-0.3,1c-0.2,0.2-0.5,0.2-1,0.2h-4.8c-0.6,0-1-0.1-1.1-0.4c-0.1-0.2-0.2-0.6-0.2-1
			v-20.3c0-0.3,0-0.6,0-1c0-0.3,0-0.7-0.1-1.1c-0.1-1-0.5-2-1.2-2.8c-0.7-0.8-2-1.3-3.8-1.3c-1.5,0-2.6,0.3-3.2,0.9
			c-0.7,0.6-1.1,1.2-1.3,1.9c-0.2,0.4-0.3,0.9-0.3,1.3c0,0.4,0,0.7,0,1v21.3c0,0.6-0.1,1-0.3,1.2c-0.2,0.2-0.6,0.3-1.1,0.3h-4.7
			c-0.5,0-0.8-0.1-1-0.2c-0.2-0.2-0.3-0.5-0.3-1v-23.7c0-1.2,0.1-2.2,0.4-2.9c0.3-0.8,1.1-1.5,2.4-2.1c1.6-0.7,3.3-1.2,5-1.5
			c1.7-0.3,3.4-0.4,5.2-0.4c2.1,0,3.7,0.2,5,0.5c1.2,0.3,2.2,0.6,2.9,1c0.3,0.2,0.5,0.3,0.8,0.5c0.2,0.2,0.4,0.3,0.6,0.4
			c0.6,0.5,1.1,1.1,1.4,1.6c0.4,0.5,0.6,1.1,0.8,1.7c0.2,0.7,0.4,1.4,0.4,2c0,0.7,0.1,1.3,0.1,1.8V291z"/>
		<path class="st0" d="M319,276.5c0.4,2.9,1.1,5,2.1,6.4c1,1.4,2.1,2.4,3.3,2.9c0.5,0.2,1,0.4,1.5,0.5c0.5,0.1,1,0.1,1.4,0.1
			c1.6,0,3-0.4,4.2-1.2c1.2-0.8,2.2-1.7,2.9-2.7c0.3-0.4,0.5-0.7,0.7-1c0.2-0.2,0.3-0.4,0.5-0.5c0.1-0.1,0.3-0.1,0.4-0.2
			c0.1,0,0.3-0.1,0.5-0.1c0.4,0,0.8,0.2,1.1,0.5c0.3,0.3,0.5,0.8,0.5,1.4c0,0.4-0.1,1-0.4,2c-0.3,1-0.8,2-1.4,3.1
			c-0.9,1.3-2.1,2.5-3.7,3.6c-1.6,1.1-3.7,1.7-6.3,1.7c-4,0-7.2-1.4-9.7-4.2c-2.5-2.8-3.8-6.8-3.8-12.2c0-5.5,1.2-9.5,3.7-12
			c2.5-2.5,5.2-3.9,8.2-4.2c0.2,0,0.5,0,0.8,0c0.3,0,0.5,0,0.8,0c2.8,0,5.1,0.6,6.7,1.9c1.6,1.3,2.8,2.7,3.5,4.2
			c0.5,1,0.9,2,1.1,2.9c0.2,0.9,0.3,1.7,0.3,2.3c0,0.7-0.1,1.2-0.4,1.6c-0.3,0.3-0.6,0.5-0.9,0.7c-0.2,0-0.3,0.1-0.5,0.1
			c-0.1,0-0.3,0.1-0.4,0.1L319,276.5z M330.3,271c-0.1-1.9-0.7-3.4-1.7-4.5c-1-1.1-2.2-1.6-3.5-1.6c-2.1,0-3.6,0.8-4.6,2.4
			c-1,1.6-1.6,3.4-1.7,5.5L330.3,271z"/>
		<path class="st0" d="M356.6,274.4c0.4,0.2,0.8,0.4,1.2,0.6c0.4,0.2,0.8,0.5,1.2,0.7c1.2,0.7,2.2,1.7,3.2,2.9c1,1.2,1.5,2.9,1.5,5
			c0,0.5-0.1,1.1-0.1,1.7c-0.1,0.6-0.3,1.3-0.5,1.9c-0.6,1.5-1.7,2.8-3.2,4c-1.5,1.2-3.9,1.8-6.9,1.8c-2.8,0-5-0.4-6.6-1.3
			c-1.6-0.9-2.8-1.8-3.5-2.9c-0.4-0.6-0.6-1.1-0.8-1.6c-0.2-0.5-0.3-1-0.3-1.4c0-0.9,0.3-1.7,0.9-2.3c0.6-0.6,1.3-0.9,2.2-0.9
			c0.8,0,1.4,0.2,1.9,0.7c0.5,0.5,0.9,1,1.3,1.5c0,0,0,0.1,0.1,0.1c0,0,0.1,0.1,0.1,0.1c0.2,0.2,0.3,0.4,0.5,0.6
			c0.1,0.2,0.3,0.4,0.5,0.6c0.5,0.7,1.1,1.2,1.7,1.7c0.6,0.4,1.4,0.7,2.3,0.7c1.1,0,2-0.3,2.7-1c0.7-0.7,1.1-1.6,1.1-2.7
			c0-0.7-0.1-1.3-0.4-1.7c-0.2-0.5-0.5-0.9-0.7-1.2c-0.2-0.2-0.3-0.3-0.5-0.5c-0.1-0.1-0.3-0.3-0.4-0.3c-0.2-0.2-0.6-0.4-1.2-0.7
			c-0.5-0.3-1.1-0.6-1.8-0.9c0,0-0.1-0.1-0.1-0.1c-0.1,0-0.1,0-0.2-0.1c-0.5-0.2-1-0.5-1.5-0.7c-0.5-0.2-0.9-0.4-1.2-0.6
			c-0.4-0.2-0.8-0.4-1.3-0.7c-0.5-0.3-1.1-0.6-1.6-1.1c-0.9-0.7-1.8-1.6-2.5-2.7c-0.8-1.1-1.1-2.6-1.1-4.3c0-0.1,0-0.2,0-0.4
			c0-0.1,0-0.3,0.1-0.4c0.2-2,1-3.8,2.6-5.5c1.6-1.7,4.2-2.5,7.8-2.5c2.6,0,4.6,0.4,6.1,1.3c1.5,0.9,2.5,1.8,3.1,2.8
			c0.2,0.4,0.4,0.8,0.5,1.2c0.1,0.4,0.2,0.8,0.2,1.1c0,0.8-0.3,1.5-0.8,2.1c-0.5,0.6-1.2,0.8-2.1,0.8c-0.8,0-1.4-0.2-1.9-0.6
			c-0.5-0.4-0.8-0.9-1.2-1.4c0-0.1-0.1-0.2-0.1-0.2c0-0.1-0.1-0.1-0.1-0.2c-0.1-0.2-0.2-0.3-0.3-0.5c-0.1-0.2-0.2-0.3-0.3-0.5
			c-0.3-0.5-0.8-0.9-1.3-1.3c-0.5-0.4-1.3-0.6-2.2-0.6c-1,0-1.8,0.3-2.3,0.8c-0.6,0.6-0.9,1.2-1.1,1.9c0,0.1-0.1,0.3-0.1,0.4
			c0,0.2,0,0.3,0,0.5c0,1.2,0.4,2.2,1.1,2.9c0.8,0.7,1.6,1.2,2.5,1.7c0.2,0.1,0.3,0.2,0.5,0.2c0.2,0.1,0.4,0.2,0.5,0.2L356.6,274.4z
			"/>
		<path class="st0" d="M382.9,274.4c0.4,0.2,0.8,0.4,1.2,0.6c0.4,0.2,0.8,0.5,1.2,0.7c1.2,0.7,2.2,1.7,3.2,2.9c1,1.2,1.5,2.9,1.5,5
			c0,0.5-0.1,1.1-0.2,1.7c-0.1,0.6-0.3,1.3-0.5,1.9c-0.6,1.5-1.7,2.8-3.2,4c-1.5,1.2-3.9,1.8-6.9,1.8c-2.8,0-5-0.4-6.6-1.3
			c-1.6-0.9-2.8-1.8-3.5-2.9c-0.4-0.6-0.6-1.1-0.8-1.6c-0.2-0.5-0.3-1-0.3-1.4c0-0.9,0.3-1.7,0.9-2.3c0.6-0.6,1.3-0.9,2.2-0.9
			c0.8,0,1.4,0.2,1.9,0.7c0.5,0.5,0.9,1,1.3,1.5c0,0,0,0.1,0.1,0.1c0,0,0.1,0.1,0.1,0.1c0.2,0.2,0.3,0.4,0.5,0.6
			c0.1,0.2,0.3,0.4,0.4,0.6c0.5,0.7,1.1,1.2,1.7,1.7c0.6,0.4,1.4,0.7,2.3,0.7c1.1,0,2-0.3,2.7-1c0.7-0.7,1.1-1.6,1.1-2.7
			c0-0.7-0.1-1.3-0.4-1.7c-0.2-0.5-0.5-0.9-0.7-1.2c-0.2-0.2-0.3-0.3-0.5-0.5c-0.1-0.1-0.3-0.3-0.4-0.3c-0.2-0.2-0.6-0.4-1.2-0.7
			c-0.5-0.3-1.1-0.6-1.8-0.9c0,0-0.1-0.1-0.2-0.1c-0.1,0-0.1,0-0.1-0.1c-0.5-0.2-1-0.5-1.5-0.7c-0.5-0.2-0.9-0.4-1.2-0.6
			c-0.4-0.2-0.8-0.4-1.3-0.7c-0.5-0.3-1.1-0.6-1.6-1.1c-0.9-0.7-1.8-1.6-2.5-2.7c-0.8-1.1-1.1-2.6-1.1-4.3c0-0.1,0-0.2,0-0.4
			c0-0.1,0-0.3,0.1-0.4c0.2-2,1-3.8,2.6-5.5c1.6-1.7,4.2-2.5,7.8-2.5c2.6,0,4.6,0.4,6.1,1.3c1.5,0.9,2.5,1.8,3.1,2.8
			c0.2,0.4,0.4,0.8,0.5,1.2c0.1,0.4,0.2,0.8,0.2,1.1c0,0.8-0.3,1.5-0.8,2.1c-0.5,0.6-1.2,0.8-2.1,0.8c-0.8,0-1.4-0.2-1.9-0.6
			c-0.5-0.4-0.9-0.9-1.2-1.4c0-0.1-0.1-0.2-0.1-0.2c0-0.1-0.1-0.1-0.1-0.2c-0.1-0.2-0.2-0.3-0.3-0.5c-0.1-0.2-0.2-0.3-0.3-0.5
			c-0.3-0.5-0.8-0.9-1.3-1.3c-0.5-0.4-1.3-0.6-2.2-0.6c-1,0-1.8,0.3-2.3,0.8c-0.6,0.6-0.9,1.2-1.1,1.9c0,0.1-0.1,0.3-0.1,0.4
			c0,0.2,0,0.3,0,0.5c0,1.2,0.4,2.2,1.1,2.9c0.8,0.7,1.6,1.2,2.5,1.7c0.2,0.1,0.3,0.2,0.5,0.2c0.2,0.1,0.4,0.2,0.5,0.2L382.9,274.4z
			"/>
	</g>
</g>
<path class="st0" d="M213.9,44.7c0,17.2-13.9,31.1-31.1,31.1c-17.2,0-31.1-13.9-31.1-31.1c0-17.2,13.9-31.1,31.1-31.1
	C199.9,13.6,213.9,27.5,213.9,44.7z"/>
<path class="st0" d="M225.6,128.2h-2v-2c0-22.4-18.2-40.7-40.6-40.7c-22.5,0-40.7,18.2-40.7,40.6v2l0,81.3l81.2,0h2
	c22.4,0.1,40.6-18,40.7-40.4c0-0.1,0-0.1,0-0.2C266.2,146.4,248.1,128.2,225.6,128.2z M248.5,174l-0.6,0.6l-23.3,23.3l-23.3-23.3
	l-0.6-0.6c-6.4-6.4-6.4-16.9,0-23.3c6.4-6.4,16.9-6.4,23.3,0l0.6,0.6l0.6-0.6c6.4-6.4,16.9-6.4,23.3,0c0,0,0,0,0.1,0.1
	C255,157.2,254.9,167.6,248.5,174z"/>
</svg>
