<?xml version="1.0" encoding="utf-8"?>
<!-- Generator: Adobe Illustrator 22.0.1, SVG Export Plug-In . SVG Version: 6.00 Build 0)  -->
<svg version="1.1" id="LOGOS" xmlns="http://www.w3.org/2000/svg" xmlns:xlink="http://www.w3.org/1999/xlink" x="0px" y="0px"
	 viewBox="0 0 144.6 230.5" style="enable-background:new 0 0 144.6 230.5;" xml:space="preserve">
<style type="text/css">
	.st0{fill:#99CCCC;}
</style>
<path class="st0" d="M82.9,51.7c0,17.2-13.9,31.1-31.1,31.1c-17.2,0-31.1-13.9-31.1-31.1c0-17.2,13.9-31.1,31.1-31.1
	C69,20.6,82.9,34.5,82.9,51.7z"/>
<path class="st0" d="M94.7,135.2h-2v-2c0-22.4-18.2-40.7-40.6-40.7c-22.5,0-40.7,18.2-40.7,40.6v2l0,81.3l81.2,0h2
	c22.4,0.1,40.6-18,40.7-40.4c0-0.1,0-0.1,0-0.2C135.3,153.4,117.1,135.2,94.7,135.2z M117.6,181l-0.6,0.6l-23.3,23.3l-23.3-23.3
	l-0.6-0.6c-6.4-6.4-6.4-16.9,0-23.3c6.4-6.4,16.9-6.4,23.3,0l0.6,0.6l0.6-0.6c6.4-6.4,16.9-6.4,23.3,0c0,0,0,0,0.1,0.1
	C124,164.2,124,174.6,117.6,181z"/>
</svg>
