<?xml version="1.0" encoding="utf-8"?>
<!-- Generator: Adobe Illustrator 22.0.1, SVG Export Plug-In . SVG Version: 6.00 Build 0)  -->
<svg version="1.1" id="Layer_1" xmlns="http://www.w3.org/2000/svg" xmlns:xlink="http://www.w3.org/1999/xlink" x="0px" y="0px"
	 viewBox="0 0 102 103" style="enable-background:new 0 0 102 103;" xml:space="preserve">
<style type="text/css">
	.st0{fill:#9AD8E4;}
</style>
<path class="st0" d="M51,6.7c-24.3,0-44,19.7-44,44c0,24.3,19.7,44,44,44c24.3,0,44-19.7,44-44C95,26.4,75.3,6.7,51,6.7z M51.5,78
	c-4.7,0-9.1-1.2-12.9-3.3l-14.8,4.7l4.8-14.3c-2.4-4-3.8-8.7-3.8-13.8c0-14.8,12-26.7,26.7-26.7c14.8,0,26.7,12,26.7,26.7
	S66.2,78,51.5,78z"/>
<path class="st0" d="M68.6,61.3c0.8-0.8,0.7-2.2-0.2-2.9l-5.2-4c-0.7-0.6-1.7-0.5-2.5,0l-2,1.6c-0.9,0.7-2.1,0.8-3,0.2
	c-2.2-1.3-8.1-7.2-9.4-9.4c-0.6-1-0.5-2.2,0.2-3l1.6-2c0.6-0.7,0.6-1.7,0-2.5l-4-5.2c-0.7-0.9-2.1-1-2.9-0.2L37.2,38
	c-1.2,1.2-1.5,3-0.6,4.5l3.8,6.6c4.7,6.4,7.3,9.2,13.1,13.1l6.6,3.8c1.5,0.8,3.3,0.6,4.5-0.6L68.6,61.3z"/>
</svg>
