<?xml version="1.0" encoding="UTF-8"?>
<svg width="88px" height="88px" viewBox="0 0 88 88" version="1.1" xmlns="http://www.w3.org/2000/svg" xmlns:xlink="http://www.w3.org/1999/xlink">
    <!-- Generator: Sketch 48.2 (47327) - http://www.bohemiancoding.com/sketch -->
    <title>twitter-icon</title>
    <desc>Created with Sketch.</desc>
    <defs></defs>
    <g id="Page-1" stroke="none" stroke-width="1" fill="none" fill-rule="evenodd">
        <g id="twitter-icon">
            <rect id="Rectangle" fill="#FFFFFF" x="17" y="18" width="56" height="52"></rect>
            <path d="M44.4,0.9 C20.4,0.9 0.9,20.4 0.9,44.4 C0.9,68.5 20.4,88 44.4,88 C68.5,88 88,68.5 88,44.4 C88,20.4 68.5,0.9 44.4,0.9 Z M36.5,66.3 C23,64.4 19.2,59.1 19.2,59.1 C20,59.2 20.9,59.2 21.7,59.2 C26.6,59.2 31.1,57.5 34.7,54.7 C30.1,54.6 26.3,51.6 24.9,47.4 C25.5,47.5 26.2,47.6 26.9,47.6 C27.9,47.6 28.8,47.5 29.7,47.2 C24.9,46.2 21.3,42 21.3,36.9 C21.3,36.9 21.3,36.8 21.3,36.8 C22.7,37.6 24.3,38.1 26,38.1 C23.2,36.2 21.3,33 21.3,29.4 C21.3,27.5 21.8,25.7 22.7,24.1 C27.9,30.4 35.6,34.6 44.3,35 C44.1,34.2 44,33.4 44,32.6 C44,26.8 48.7,22.1 54.5,22.1 C57.5,22.1 60.2,23.4 62.1,25.4 C64.5,24.9 66.7,24.1 68.7,22.9 C67.9,25.3 66.3,27.4 64.1,28.7 C66.2,28.4 67.7,28.1 69.5,27.3 C68.1,29.4 66.9,31 64.8,32.5 C73.2,59.1 50,68.2 36.5,66.3 Z" id="Shape" fill="#8CA1CD" fill-rule="nonzero"></path>
        </g>
    </g>
</svg>